<svg width="1024" height="1024" viewBox="0 0 1024 1024" fill="none" xmlns="http://www.w3.org/2000/svg">
<g clip-path="url(#clip0_253_11)">
<rect width="1024" height="1024" fill="#F8D59F"/>
<path d="M1450.67 618.66C1469.97 572.071 1088 434.421 1088 383.994C1088 282.15 1138.68 50.6748 1066.67 -21.3391C994.655 -93.3531 549.845 -85.3391 448.002 -85.3391C346.159 -85.3391 -1101.32 77.3188 -1173.33 149.333C-1245.35 221.347 -127.998 410.163 -127.998 512.007C-127.998 562.434 -125.963 614.738 -106.665 661.327C-87.3673 707.916 -56.9934 988.336 -21.3357 1023.99C14.322 1059.65 316.08 1068.7 362.669 1087.99C409.258 1107.29 482.908 1087.99 533.335 1087.99C583.763 1087.99 742.746 1107.29 789.335 1087.99C835.924 1068.7 988.343 1080.98 1024 1045.33C1059.66 1009.67 1431.37 665.249 1450.67 618.66Z" fill="#CA7C4C"/>
<path d="M384.001 320.007L512 736.007L640.001 320.007M1088 383.994C1088 434.421 1469.97 572.071 1450.67 618.66C1431.37 665.249 1059.66 1009.67 1024 1045.33C988.343 1080.98 835.924 1068.7 789.335 1087.99C742.746 1107.29 583.763 1087.99 533.335 1087.99C482.908 1087.99 409.258 1107.29 362.669 1087.99C316.08 1068.7 14.322 1059.65 -21.3357 1023.99C-56.9934 988.336 -87.3673 707.916 -106.665 661.327C-125.963 614.738 -127.998 562.434 -127.998 512.007C-127.998 410.163 -1245.35 221.347 -1173.33 149.333C-1101.32 77.3188 346.159 -85.3391 448.002 -85.3391C549.845 -85.3391 994.655 -93.3531 1066.67 -21.3391C1138.68 50.6748 1088 282.15 1088 383.994Z" stroke="#723E26" stroke-width="64" stroke-linecap="round" stroke-linejoin="round"/>
<path d="M387.056 77.1681C387.276 78.8214 388.016 81.9414 388.37 82.8131C388.679 83.5755 388.722 84.3136 388.704 84.6108C388.671 85.1509 388.096 83.0636 387.631 82.2631C387.236 81.5809 386.874 80.5814 386.446 79.5069C385.594 77.3667 386.167 76.4681 385.946 75.6342C385.89 75.4234 385.798 75.2458 386.384 75.6464C388.282 76.9451 390.124 78.7903 391.105 80.0297C391.648 80.7167 391.611 81.6803 391.52 82.6981C391.483 83.1014 391.245 83.2392 391.04 83.3147C390.836 83.3903 390.616 83.3903 390.484 83.2986C390.352 83.2069 390.316 83.0236 390.352 82.8192C390.388 82.6147 390.498 82.3947 390.611 82.1681" stroke="#CA7C4C" stroke-width="4.26667" stroke-linecap="round"/>
<path d="M247.488 415.977C245.013 413.234 241.668 409.444 238.181 405.255C234.689 401.06 231.08 396.494 228.064 392.193C225.008 387.836 222.711 383.959 221.677 381.099C220.129 376.817 218.228 372.754 216.476 368.977C214.698 365.145 213.088 361.63 211.964 358.218C209.769 351.552 209.556 345.701 213.825 339.556C223.084 326.234 241.703 322.972 254.678 332.561C260.851 337.124 263.173 343.021 263.51 350.007C263.858 357.201 262.089 365.306 260.111 373.982C258.067 382.953 254.638 394.827 251.703 404.509C250.261 409.265 248.944 413.472 247.979 416.518C247.819 416.343 247.655 416.163 247.488 415.977Z" fill="#588088" stroke="#723E26" stroke-width="6.17638"/>
<path d="M226.502 286.801C226.669 287.325 226.98 288.227 227.556 290.229C228.539 293.645 228.897 297.213 229.125 300.566C229.259 302.549 229.667 305.087 230.105 307.457C231.412 314.527 231.948 316.014 232.218 317.267C232.411 318.529 232.542 319.779 232.689 320.768C232.746 321.22 232.766 321.571 232.865 322.398" stroke="#723E26" stroke-width="6.17638" stroke-linecap="round"/>
<path d="M229.195 316.933C229.169 316.78 228.932 316.541 228.394 316.294C227.743 315.994 226.893 316.246 226.188 316.424C225.574 316.579 224.946 317.445 224.294 318.647C223.977 319.231 224.006 319.906 224.06 320.36C224.211 321.621 225.312 322.478 225.943 323.748C226.701 325.274 229.884 326.287 232.905 326.598C234.768 326.79 236.187 325.868 237.507 325.406C239.046 324.868 239.965 323.92 240.693 323.039C240.889 322.802 240.951 322.442 240.878 322.114C240.079 318.506 233.221 316.455 232.206 316.446C230.711 316.433 229.905 318.044 229.223 319.094C228.933 319.541 229.388 320.202 229.562 320.769C230 322.193 232.215 322.831 233.481 323.017C235.044 323.073 236.372 322.93 237.475 322.149C237.748 321.864 238.002 321.506 238.265 321.137" stroke="#723E26" stroke-width="6.17638" stroke-linecap="round"/>
<path d="M454.163 108.513C451.626 108.234 448.159 107.815 444.436 107.255C440.707 106.694 436.748 105.996 433.216 105.163C429.638 104.318 426.671 103.372 424.824 102.371C422.059 100.873 419.212 99.6506 416.573 98.5061C413.895 97.3452 411.45 96.2715 409.304 95.0274C405.109 92.5959 402.311 89.6751 401.692 84.5435C400.349 73.4171 408.458 63.1807 419.558 62.169C424.839 61.6877 428.746 63.6643 432.13 67.1144C435.613 70.6666 438.422 75.6608 441.386 81.045C444.452 86.6133 448.138 94.3153 451.07 100.66C452.511 103.776 453.764 106.551 454.665 108.567C454.502 108.549 454.335 108.532 454.163 108.513Z" fill="#588088" stroke="#723E26" stroke-width="4.26667"/>
<path d="M384 51.4998C384.327 51.6932 384.902 52.0157 386.118 52.7842C388.195 54.0954 390.018 55.7718 391.676 57.3973C392.656 58.359 394.033 59.4809 395.347 60.5026C399.269 63.5503 400.228 64.0716 400.943 64.5941C401.623 65.1563 402.264 65.7412 402.794 66.1838C403.031 66.3911 403.203 66.5633 403.634 66.9444" stroke="#723E26" stroke-width="4.26667" stroke-linecap="round"/>
<path d="M399.227 65.8112C399.144 65.744 398.912 65.73 398.521 65.8492C398.047 65.9937 397.724 66.5141 397.442 66.9299C397.197 67.2917 397.271 68.0269 397.486 68.9468C397.591 69.3932 397.915 69.7285 398.152 69.9376C398.81 70.5192 399.771 70.456 400.68 70.8213C401.772 71.2604 403.879 70.3209 405.581 69.0939C406.631 68.3368 406.939 67.21 407.408 66.3651C407.955 65.3805 407.994 64.4692 407.965 63.6805C407.957 63.4681 407.823 63.2538 407.636 63.1182C405.566 61.6235 401.085 63.7152 400.557 64.1769C399.78 64.857 400.104 66.0578 400.235 66.9134C400.29 67.2766 400.828 67.4092 401.179 67.6215C402.059 68.1549 403.495 67.4668 404.234 66.9819C405.066 66.2923 405.685 65.6087 405.896 64.6989C405.905 64.427 405.872 64.125 405.838 63.8139" stroke="#723E26" stroke-width="4.26667" stroke-linecap="round"/>
<path d="M0.00129429 426.664C0.00129429 426.664 10.1571 422.938 21.3346 426.664C39.0071 432.555 54.7584 421.505 64.0011 405.331C72.2683 390.864 64.0011 379.327 64.0011 362.664C64.0011 346.002 58.7322 335.805 64.0011 319.998C71.4524 297.643 85.0076 286.612 106.666 277.329C129.64 267.484 170.668 277.331 170.668 277.331C170.668 277.331 221.76 295.925 256.001 298.664C272.61 299.993 282.006 298.664 298.668 298.664C320.001 298.664 325.527 303.933 341.334 298.664C363.689 291.213 373.463 277.074 384.001 255.998C398.904 226.191 384.001 203.989 384.001 170.664C384.001 137.34 384.001 85.3306 384.001 85.3306C384.001 85.3306 376.549 57.5659 384.002 42.6623C389.271 32.1251 405.334 21.3311 405.334 21.3311C405.334 21.3311 429.37 -0.00127162 448 -0.000958242C469.334 -0.000598745 490.667 21.3327 490.667 21.3327" stroke="#723E26" stroke-width="10"/>
<path d="M144.82 358.667C142.329 358.113 138.928 357.319 135.288 356.357C131.643 355.393 127.783 354.269 124.363 353.056C120.898 351.826 118.052 350.563 116.325 349.367C113.739 347.577 111.042 346.052 108.543 344.627C106.008 343.181 103.694 341.848 101.696 340.377C97.7905 337.504 95.3276 334.296 95.2707 329.127C95.1475 317.921 104.323 308.628 115.466 308.831C120.768 308.927 124.437 311.317 127.425 315.115C130.501 319.026 132.75 324.296 135.11 329.971C137.551 335.84 140.377 343.897 142.601 350.523C143.694 353.777 144.638 356.673 145.314 358.775C145.154 358.739 144.989 358.704 144.82 358.667Z" fill="#F37E6C" stroke="#723E26" stroke-width="4.26667"/>
<path d="M81.2812 294.354C81.585 294.582 82.1212 294.965 83.2472 295.862C85.1684 297.391 86.7988 299.256 88.2693 301.052C89.1394 302.115 90.3854 303.38 91.581 304.539C95.1474 307.996 96.0445 308.618 96.698 309.215C97.3125 309.848 97.8867 310.5 98.3654 310.997C98.5782 311.229 98.7301 311.419 99.1168 311.845" stroke="#723E26" stroke-width="4.26667" stroke-linecap="round"/>
<path d="M94.8602 310.236C94.7843 310.16 94.5553 310.121 94.1537 310.197C93.6672 310.289 93.2895 310.771 92.9639 311.153C92.6805 311.486 92.6739 312.225 92.7878 313.163C92.8431 313.618 93.1296 313.987 93.3419 314.221C93.9324 314.87 94.8947 314.912 95.7583 315.374C96.7967 315.93 98.9935 315.225 100.818 314.191C101.945 313.552 102.374 312.466 102.932 311.677C103.583 310.758 103.72 309.856 103.778 309.069C103.793 308.857 103.684 308.629 103.512 308.474C101.617 306.763 96.9349 308.354 96.3601 308.756C95.5137 309.347 95.7048 310.576 95.7416 311.441C95.7573 311.808 96.2779 311.999 96.6029 312.248C97.4198 312.874 98.9221 312.346 99.7092 311.945C100.611 311.35 101.302 310.738 101.61 309.856C101.649 309.587 101.649 309.283 101.649 308.97" stroke="#723E26" stroke-width="4.26667" stroke-linecap="round"/>
<path d="M439.591 401.782C435.765 400.932 430.542 399.712 424.95 398.234C419.351 396.755 413.423 395.027 408.17 393.164C402.849 391.276 398.478 389.335 395.826 387.499C391.854 384.749 387.71 382.406 383.872 380.217C379.979 377.997 376.425 375.949 373.356 373.69C367.358 369.276 363.574 364.35 363.487 356.411C363.298 339.198 377.391 324.926 394.507 325.238C402.65 325.386 408.284 329.057 412.873 334.89C417.597 340.896 421.052 348.991 424.678 357.708C428.428 366.722 432.766 379.097 436.183 389.274C437.861 394.272 439.31 398.72 440.349 401.947C440.103 401.893 439.85 401.84 439.591 401.782Z" fill="#AFC8B2" stroke="#592F1C" stroke-width="6.55332"/>
<path d="M342 303C342.467 303.35 343.29 303.938 345.02 305.315C347.97 307.664 350.475 310.529 352.733 313.288C354.07 314.92 355.983 316.863 357.82 318.643C363.297 323.952 364.675 324.908 365.679 325.826C366.623 326.798 367.505 327.798 368.24 328.562C368.567 328.918 368.8 329.21 369.394 329.864" stroke="#592F1C" stroke-width="6.55332" stroke-linecap="round"/>
<path d="M362.856 327.392C362.74 327.276 362.388 327.216 361.771 327.332C361.024 327.474 360.444 328.214 359.944 328.802C359.509 329.313 359.498 330.448 359.673 331.889C359.758 332.588 360.198 333.154 360.524 333.513C361.431 334.511 362.909 334.575 364.236 335.285C365.831 336.138 369.205 335.056 372.008 333.467C373.737 332.486 374.397 330.818 375.255 329.606C376.253 328.194 376.465 326.809 376.554 325.6C376.577 325.275 376.409 324.925 376.144 324.687C373.234 322.058 366.043 324.503 365.16 325.12C363.86 326.028 364.154 327.916 364.21 329.244C364.234 329.808 365.034 330.1 365.533 330.483C366.788 331.444 369.095 330.634 370.304 330.017C371.69 329.103 372.75 328.163 373.224 326.809C373.284 326.396 373.284 325.929 373.284 325.448" stroke="#592F1C" stroke-width="6.55332" stroke-linecap="round"/>
<path d="M268.362 168.959C272.376 168.916 277.869 168.916 283.79 169.088C289.719 169.259 296.034 169.601 301.707 170.236C307.454 170.88 312.265 171.797 315.338 173.011C319.94 174.829 324.618 176.2 328.955 177.489C333.355 178.797 337.377 180.013 340.964 181.55C347.974 184.556 352.895 188.588 354.831 196.486C359.028 213.609 348.296 231.125 331.153 234.801C322.997 236.549 316.523 234.2 310.588 229.451C304.477 224.561 299.146 217.292 293.5 209.443C287.661 201.326 280.452 189.995 274.674 180.64C271.836 176.046 269.354 171.947 267.567 168.97C267.825 168.967 268.09 168.962 268.362 168.959Z" fill="#FBA817" stroke="#723E26" stroke-width="6.71176"/>
<path d="M388.7 244.751C388.153 244.511 387.194 244.115 385.149 243.145C381.659 241.489 378.494 239.215 375.599 236.99C373.886 235.673 371.525 234.181 369.279 232.834C362.579 228.814 360.982 228.181 359.768 227.5C358.6 226.751 357.487 225.958 356.576 225.367C356.167 225.088 355.866 224.852 355.122 224.338" stroke="#723E26" stroke-width="6.71176" stroke-linecap="round"/>
<path d="M362.218 225.276C362.361 225.365 362.726 225.343 363.314 225.083C364.026 224.768 364.433 223.894 364.795 223.192C365.11 222.58 364.855 221.446 364.345 220.05C364.098 219.373 363.527 218.91 363.118 218.628C361.981 217.844 360.492 218.125 359.004 217.726C357.215 217.246 354.102 219.111 351.676 221.349C350.179 222.729 349.91 224.547 349.337 225.955C348.67 227.596 348.781 229.027 348.974 230.253C349.027 230.583 349.276 230.893 349.595 231.069C353.11 233.012 359.713 228.9 360.45 228.079C361.535 226.87 360.802 225.056 360.437 223.745C360.281 223.188 359.416 223.082 358.829 222.817C357.353 222.15 355.241 223.496 354.179 224.393C353.01 225.627 352.171 226.811 352.014 228.272C352.05 228.698 352.159 229.164 352.271 229.643" stroke="#723E26" stroke-width="6.71176" stroke-linecap="round"/>
<path d="M214.944 283.948C214.944 284.021 214.944 284.094 214.944 285.25C214.944 286.406 214.944 288.643 214.833 291.281" stroke="#723E26" stroke-width="4.26667" stroke-linecap="round"/>
<path d="M392.558 202.337C392.447 203.141 392.667 205.886 393.168 208.918C393.309 209.775 393.336 210.334 393.409 210.76C393.43 210.88 393.629 210.71 393.723 210.396C394.332 208.36 393.447 205.532 393.208 204.266C393.003 203.184 391.785 201.972 391.337 201.411C391.006 200.995 391.187 202.96 391.628 204.748C392.874 209.798 394.148 210.298 394.629 210.594C394.842 210.726 395.036 210.744 395.259 210.597C396.956 209.484 396.558 205.938 396.558 204.807C396.558 204.812 396.852 206.435 397.351 208.526C397.557 209.298 397.667 209.481 397.892 210.004" stroke="#CA7C4C" stroke-width="4.26667" stroke-linecap="round"/>
<path d="M755.058 816.514C753.301 813.196 750.945 808.631 748.549 803.637C746.15 798.636 743.727 793.24 741.823 788.252C739.894 783.2 738.594 778.808 738.285 775.733C737.823 771.129 736.956 766.653 736.168 762.495C735.368 758.277 734.654 754.414 734.394 750.774C733.886 743.658 735.128 737.84 740.862 732.845C753.294 722.014 772.455 723.423 782.86 736.096C787.81 742.125 788.634 748.513 787.231 755.482C785.787 762.657 782.031 770.205 777.928 778.263C773.685 786.596 767.358 797.447 762.06 806.26C759.459 810.589 757.116 814.408 755.408 817.17C755.295 816.957 755.177 816.739 755.058 816.514Z" fill="#AFC8B2" stroke="#723E26" stroke-width="6.27697"/>
<path d="M766.455 684C766.49 684.558 766.572 685.524 766.643 687.64C766.763 691.25 766.23 694.856 765.622 698.216C765.262 700.204 765.034 702.807 764.877 705.251C764.409 712.543 764.568 714.141 764.523 715.443C764.4 716.735 764.219 717.999 764.118 719.01C764.061 719.47 763.994 719.821 763.886 720.66" stroke="#723E26" stroke-width="6.27697" stroke-linecap="round"/>
<path d="M499.111 1066.08C497.917 1063.82 496.316 1060.72 494.688 1057.32C493.057 1053.92 491.409 1050.25 490.115 1046.86C488.804 1043.43 487.92 1040.44 487.71 1038.35C487.396 1035.22 486.807 1032.18 486.271 1029.36C485.727 1026.49 485.242 1023.86 485.065 1021.39C484.72 1016.55 485.565 1012.6 489.462 1009.2C497.912 1001.84 510.936 1002.8 518.009 1011.41C521.374 1015.51 521.934 1019.85 520.981 1024.59C519.999 1029.47 517.446 1034.6 514.657 1040.07C511.773 1045.74 507.472 1053.11 503.871 1059.1C502.102 1062.05 500.51 1064.64 499.349 1066.52C499.272 1066.38 499.192 1066.23 499.111 1066.08Z" fill="#AFC8B2" stroke="#723E26" stroke-width="4.26667"/>
<path d="M506.859 976C506.882 976.379 506.938 977.036 506.986 978.474C507.068 980.928 506.706 983.379 506.292 985.663C506.047 987.015 505.892 988.784 505.786 990.445C505.468 995.402 505.576 996.488 505.545 997.373C505.462 998.251 505.338 999.111 505.27 999.798C505.231 1000.11 505.185 1000.35 505.112 1000.92" stroke="#723E26" stroke-width="4.26667" stroke-linecap="round"/>
<path d="M761.625 714.366C761.638 714.208 761.463 713.915 760.995 713.537C760.428 713.08 759.528 713.117 758.789 713.118C758.145 713.118 757.312 713.816 756.37 714.838C755.913 715.334 755.774 716.007 755.714 716.467C755.55 717.749 756.422 718.866 756.728 720.274C757.097 721.967 759.982 723.755 762.881 724.811C764.671 725.463 766.297 724.908 767.713 724.78C769.363 724.631 770.504 723.925 771.44 723.239C771.693 723.054 771.843 722.714 771.852 722.373C771.961 718.618 765.712 714.894 764.714 714.634C763.244 714.25 762.05 715.637 761.117 716.503C760.72 716.871 761.004 717.635 761.035 718.237C761.113 719.749 763.138 720.928 764.338 721.426C765.865 721.869 767.209 722.058 768.491 721.562C768.83 721.349 769.17 721.059 769.52 720.761" stroke="#723E26" stroke-width="6.27697" stroke-linecap="round"/>
<path d="M549.527 887.065C552.079 887.037 555.571 887.037 559.335 887.145C563.103 887.253 567.118 887.469 570.724 887.872C574.378 888.28 577.437 888.863 579.391 889.634C582.316 890.789 585.29 891.66 588.048 892.478C590.845 893.309 593.402 894.081 595.682 895.058C600.139 896.967 603.268 899.53 604.5 904.55C607.171 915.434 600.352 926.571 589.455 928.911C584.27 930.024 580.153 928.532 576.379 925.513C572.494 922.406 569.105 917.786 565.514 912.797C561.801 907.638 557.216 900.435 553.541 894.49C551.736 891.57 550.158 888.965 549.021 887.073C549.185 887.07 549.354 887.067 549.527 887.065Z" fill="#588088" stroke="#723E26" stroke-width="4.26667"/>
<path d="M626.038 935.229C625.69 935.076 625.081 934.825 623.78 934.209C621.561 933.157 619.549 931.712 617.709 930.297C616.619 929.461 615.118 928.512 613.69 927.656C609.431 925.102 608.415 924.7 607.643 924.267C606.901 923.791 606.193 923.288 605.614 922.912C605.354 922.735 605.163 922.584 604.689 922.258" stroke="#723E26" stroke-width="4.26667" stroke-linecap="round"/>
<path d="M609.2 922.859C609.291 922.915 609.523 922.901 609.897 922.736C610.35 922.536 610.608 921.98 610.838 921.534C611.038 921.145 610.876 920.424 610.552 919.537C610.394 919.106 610.031 918.812 609.772 918.633C609.049 918.135 608.102 918.313 607.156 918.06C606.018 917.755 604.04 918.941 602.498 920.364C601.547 921.242 601.376 922.398 601.012 923.293C600.588 924.336 600.659 925.245 600.782 926.025C600.815 926.235 600.974 926.431 601.177 926.544C603.412 927.778 607.608 925.163 608.077 924.641C608.766 923.873 608.3 922.719 608.068 921.886C607.969 921.532 607.419 921.465 607.045 921.296C606.107 920.873 604.765 921.728 604.09 922.299C603.347 923.083 602.814 923.837 602.714 924.765C602.737 925.036 602.806 925.332 602.878 925.637" stroke="#723E26" stroke-width="4.26667" stroke-linecap="round"/>
<path d="M962.126 516.605C962.126 516.605 952.492 521.525 940.948 519.17C922.695 515.448 908.387 528.312 901.157 545.48C894.69 560.836 904.284 571.296 906.289 587.837C908.293 604.378 914.75 613.868 911.42 630.194C906.712 653.283 894.582 665.864 874.196 677.684C852.574 690.222 810.66 685.38 810.66 685.38C810.66 685.38 757.702 673.066 723.38 674.465C706.731 675.144 697.564 677.593 681.023 679.597C659.844 682.163 653.725 677.596 638.666 684.729C617.37 694.815 609.368 710.026 601.441 732.217C590.231 763.6 607.696 783.848 611.704 816.931C615.712 850.014 621.967 901.645 621.967 901.645C621.967 901.645 632.705 928.312 627.099 944.004C623.135 955.098 608.487 967.746 608.487 967.746C608.487 967.746 587.191 991.815 568.697 994.055C547.518 996.62 523.773 978.008 523.773 978.008" stroke="#723E26" stroke-width="10"/>
<path d="M826.538 601.528C829.077 601.778 832.548 602.158 836.278 602.675C840.013 603.193 843.98 603.845 847.521 604.638C851.109 605.442 854.086 606.354 855.944 607.333C858.727 608.799 861.588 609.989 864.24 611.103C866.93 612.233 869.388 613.279 871.548 614.498C875.771 616.881 878.602 619.77 879.28 624.894C880.75 636.004 872.759 646.333 861.672 647.472C856.397 648.014 852.467 646.082 849.045 642.671C845.521 639.159 842.654 634.198 839.628 628.848C836.499 623.315 832.725 615.656 829.72 609.346C828.244 606.247 826.958 603.485 826.034 601.481C826.197 601.496 826.365 601.511 826.538 601.528Z" fill="#FBA817" stroke="#723E26" stroke-width="4.26667"/>
<path d="M897.35 657.729C897.021 657.539 896.443 657.223 895.218 656.469C893.126 655.182 891.283 653.526 889.608 651.92C888.616 650.969 887.227 649.863 885.901 648.857C881.944 645.854 880.979 645.344 880.258 644.83C879.572 644.276 878.924 643.698 878.389 643.262C878.149 643.057 877.976 642.887 877.541 642.511" stroke="#723E26" stroke-width="4.26667" stroke-linecap="round"/>
<path d="M881.96 643.593C882.044 643.659 882.276 643.67 882.666 643.546C883.138 643.397 883.455 642.872 883.732 642.454C883.973 642.089 883.891 641.355 883.665 640.437C883.555 639.992 883.227 639.66 882.988 639.454C882.323 638.88 881.363 638.954 880.45 638.6C879.352 638.173 877.256 639.137 875.569 640.383C874.528 641.152 874.232 642.282 873.773 643.133C873.238 644.123 873.209 645.035 873.247 645.823C873.257 646.036 873.393 646.249 873.583 646.382C875.67 647.853 880.126 645.71 880.649 645.242C881.418 644.553 881.08 643.356 880.94 642.502C880.88 642.139 880.34 642.013 879.988 641.805C879.101 641.282 877.673 641.986 876.94 642.479C876.116 643.179 875.505 643.869 875.304 644.781C875.298 645.053 875.335 645.355 875.372 645.666" stroke="#723E26" stroke-width="4.26667" stroke-linecap="round"/>
<path d="M324.207 914.074C326.663 914.77 330.011 915.759 333.591 916.929C337.174 918.1 340.963 919.445 344.308 920.853C347.696 922.28 350.465 923.705 352.12 924.998C354.598 926.934 357.204 928.612 359.617 930.178C362.064 931.767 364.297 933.232 366.208 934.814C369.941 937.908 372.215 941.252 371.975 946.416C371.453 957.611 361.758 966.36 350.645 965.517C345.357 965.115 341.832 962.518 339.068 958.554C336.222 954.474 334.28 949.083 332.25 943.281C330.15 937.282 327.793 929.075 325.954 922.332C325.05 919.02 324.274 916.075 323.72 913.938C323.878 913.983 324.041 914.027 324.207 914.074Z" fill="#FBA817" stroke="#723E26" stroke-width="4.26667"/>
<path d="M383.941 981.933C383.651 981.688 383.138 981.275 382.065 980.315C380.235 978.678 378.715 976.722 377.35 974.844C376.542 973.733 375.371 972.398 374.244 971.173C370.883 967.517 370.023 966.844 369.405 966.21C368.828 965.543 368.292 964.859 367.843 964.335C367.644 964.091 367.503 963.893 367.141 963.446" stroke="#723E26" stroke-width="4.26667" stroke-linecap="round"/>
<path d="M371.299 965.293C371.37 965.374 371.596 965.426 372.002 965.373C372.493 965.309 372.898 964.85 373.245 964.486C373.547 964.17 373.596 963.433 373.536 962.49C373.507 962.033 373.242 961.648 373.044 961.403C372.492 960.72 371.533 960.623 370.698 960.112C369.693 959.498 367.459 960.075 365.578 961.002C364.417 961.575 363.925 962.635 363.323 963.39C362.621 964.27 362.431 965.163 362.329 965.945C362.301 966.156 362.397 966.389 362.56 966.554C364.354 968.372 369.119 967.052 369.716 966.684C370.595 966.143 370.475 964.905 370.488 964.039C370.494 963.672 369.985 963.452 369.675 963.185C368.895 962.513 367.365 962.953 366.556 963.309C365.621 963.851 364.897 964.422 364.538 965.284C364.484 965.551 364.466 965.854 364.448 966.166" stroke="#723E26" stroke-width="4.26667" stroke-linecap="round"/>
<path d="M526.661 605.91C530.368 606.275 535.433 606.828 540.877 607.583C546.328 608.339 552.118 609.291 557.286 610.449C562.522 611.622 566.867 612.953 569.579 614.382C573.64 616.522 577.816 618.258 581.687 619.884C585.613 621.533 589.199 623.06 592.352 624.839C598.515 628.317 602.647 632.533 603.637 640.011C605.783 656.227 594.12 671.301 577.939 672.964C570.24 673.754 564.505 670.936 559.51 665.958C554.367 660.832 550.183 653.59 545.766 645.781C541.199 637.706 535.692 626.529 531.306 617.319C529.152 612.796 527.276 608.767 525.927 605.841C526.165 605.864 526.41 605.885 526.661 605.91Z" fill="#F37E6C" stroke="#592F1C" stroke-width="6.22712"/>
<path d="M630.011 687.933C629.531 687.656 628.687 687.195 626.898 686.094C623.846 684.215 621.156 681.799 618.71 679.455C617.263 678.068 615.236 676.454 613.3 674.985C607.526 670.603 606.117 669.858 605.065 669.107C604.064 668.298 603.118 667.455 602.337 666.818C601.988 666.52 601.734 666.271 601.099 665.722" stroke="#592F1C" stroke-width="6.22712" stroke-linecap="round"/>
<path d="M607.548 667.299C607.672 667.395 608.01 667.412 608.579 667.231C609.268 667.013 609.73 666.248 610.135 665.636C610.487 665.104 610.367 664.032 610.037 662.693C609.877 662.044 609.397 661.56 609.049 661.259C608.079 660.421 606.678 660.529 605.345 660.011C603.743 659.389 600.684 660.795 598.221 662.614C596.702 663.737 596.27 665.386 595.6 666.627C594.819 668.073 594.778 669.404 594.832 670.554C594.847 670.864 595.046 671.175 595.323 671.37C598.369 673.516 604.873 670.389 605.635 669.706C606.758 668.7 606.265 666.953 606.06 665.707C605.973 665.178 605.185 664.993 604.67 664.689C603.377 663.926 601.293 664.954 600.223 665.674C599.02 666.694 598.127 667.702 597.835 669.034C597.826 669.431 597.879 669.871 597.934 670.324" stroke="#592F1C" stroke-width="6.22712" stroke-linecap="round"/>
<path d="M1000.63 563.306C998.111 563.7 994.655 564.202 990.915 564.636C987.17 565.07 983.165 565.432 979.539 565.551C975.864 565.672 972.753 565.535 970.709 565.052C967.648 564.329 964.58 563.894 961.733 563.48C958.846 563.06 956.205 562.663 953.808 562.024C949.123 560.774 945.659 558.687 943.719 553.896C939.513 543.508 944.662 531.507 955.11 527.627C960.081 525.781 964.37 526.667 968.538 529.112C972.829 531.629 976.847 535.715 981.116 540.136C985.531 544.709 991.103 551.178 995.594 556.535C997.799 559.165 999.735 561.517 1001.13 563.226C1000.97 563.252 1000.8 563.28 1000.63 563.306Z" fill="#F37E6C" stroke="#723E26" stroke-width="4.26667"/>
<path d="M918 526.634C918.366 526.735 919.005 526.896 920.381 527.319C922.728 528.042 924.926 529.183 926.951 530.318C928.149 530.99 929.771 531.713 931.307 532.355C935.889 534.271 936.952 534.523 937.778 534.84C938.581 535.205 939.354 535.602 939.981 535.89C940.264 536.029 940.475 536.15 940.99 536.405" stroke="#723E26" stroke-width="4.26667" stroke-linecap="round"/>
<path d="M936.442 536.466C936.343 536.423 936.116 536.471 935.769 536.688C935.35 536.951 935.175 537.538 935.011 538.013C934.869 538.426 935.133 539.117 935.581 539.948C935.799 540.352 936.2 540.59 936.483 540.73C937.27 541.12 938.181 540.807 939.154 540.922C940.323 541.06 942.111 539.602 943.432 537.973C944.248 536.968 944.251 535.799 944.482 534.861C944.752 533.768 944.551 532.878 944.318 532.124C944.255 531.921 944.069 531.749 943.852 531.668C941.464 530.766 937.686 533.957 937.298 534.541C936.726 535.401 937.352 536.475 937.702 537.267C937.851 537.603 938.405 537.59 938.798 537.703C939.788 537.988 940.993 536.948 941.58 536.287C942.202 535.404 942.622 534.582 942.587 533.648C942.525 533.384 942.414 533.101 942.3 532.809" stroke="#723E26" stroke-width="4.26667" stroke-linecap="round"/>
<path d="M726.808 843.745C722.726 844.284 717.133 844.962 711.084 845.518C705.026 846.075 698.554 846.505 692.7 846.558C686.769 846.611 681.758 846.271 678.479 845.414C673.57 844.131 668.638 843.312 664.062 842.535C659.421 841.746 655.177 841.004 651.336 839.881C643.827 837.686 638.32 834.187 635.375 826.385C628.989 809.469 637.754 790.311 654.755 784.454C662.844 781.668 669.725 783.261 676.354 787.364C683.178 791.589 689.503 798.333 696.22 805.628C703.166 813.172 711.903 823.82 718.94 832.631C722.396 836.958 725.428 840.825 727.615 843.636C727.353 843.671 727.084 843.709 726.808 843.745Z" fill="#F7D051" stroke="#723E26" stroke-width="6.88353"/>
<path d="M594.938 781.417C595.524 781.594 596.549 781.878 598.751 782.614C602.508 783.869 606.011 785.794 609.233 787.703C611.14 788.832 613.728 790.06 616.181 791.155C623.498 794.421 625.202 794.868 626.523 795.411C627.804 796.031 629.034 796.7 630.035 797.19C630.486 797.423 630.821 797.627 631.643 798.058" stroke="#723E26" stroke-width="6.88353" stroke-linecap="round"/>
<path d="M624.302 797.977C624.145 797.904 623.776 797.971 623.209 798.309C622.523 798.717 622.217 799.657 621.935 800.417C621.69 801.078 622.089 802.202 622.78 803.56C623.116 804.219 623.754 804.62 624.205 804.856C625.459 805.514 626.941 805.045 628.505 805.268C630.386 805.535 633.326 803.252 635.519 800.675C636.873 799.085 636.923 797.2 637.332 795.696C637.809 793.943 637.52 792.501 637.171 791.276C637.078 790.946 636.785 790.662 636.439 790.522C632.62 788.977 626.405 793.978 625.756 794.905C624.801 796.269 625.77 798.026 626.304 799.316C626.531 799.864 627.425 799.865 628.056 800.062C629.64 800.559 631.625 798.929 632.596 797.885C633.634 796.484 634.342 795.174 634.321 793.668C634.232 793.238 634.064 792.778 633.891 792.304" stroke="#723E26" stroke-width="6.88353" stroke-linecap="round"/>
<path d="M765.909 684.138C765.9 684.065 765.891 683.992 765.752 682.844C765.613 681.697 765.344 679.476 765.137 676.844" stroke="#723E26" stroke-width="4.26667" stroke-linecap="round"/>
<path d="M596.312 786.568C596.326 785.756 595.777 783.058 594.916 780.108C594.672 779.274 594.578 778.723 594.454 778.308C594.42 778.192 594.242 778.384 594.186 778.707C593.827 780.801 595.046 783.502 595.436 784.73C595.769 785.781 597.124 786.837 597.636 787.34C598.015 787.713 597.599 785.784 596.946 784.062C595.101 779.199 593.776 778.856 593.264 778.619C593.036 778.515 592.841 778.52 592.638 778.692C591.086 780.001 591.908 783.474 592.044 784.597C592.044 784.591 591.557 783.016 590.81 781C590.513 780.258 590.381 780.09 590.096 779.598" stroke="#CA7C4C" stroke-width="4.26667" stroke-linecap="round"/>
<path d="M519.344 377.215C519.95 375.391 524.667 368.529 536.922 352.324C545.942 340.397 559.636 320.203 568.942 308.153C578.248 296.103 582.492 292.616 586.118 289.911C589.744 287.205 592.624 285.387 597.746 282.934C602.867 280.481 610.143 277.449 623.365 273.993C636.586 270.537 655.533 266.747 676.435 264.264C697.336 261.782 719.618 260.721 731.779 260.25C743.94 259.779 745.304 259.931 749.341 261.07C753.379 262.209 760.048 264.331 766.061 266.788C777.457 271.446 787.084 277.968 795.489 284.383C799.49 287.436 802.379 290.797 806.366 295.544C815.422 306.327 822.172 316.092 826.067 322.734C833.274 335.023 834.734 342.278 836.273 347.717C836.581 349.628 836.884 352.356 837.04 355.959C837.196 359.563 837.196 363.959 836.737 369.406" stroke="#FBA817" stroke-width="4.26667" stroke-linecap="round"/>
<path d="M836.736 369.404C835.671 368.495 826.558 359.676 818.161 353.346C812.722 349.246 808.267 346.443 805.222 345.299C799.887 343.295 793.89 342.46 785.744 341.849C761.014 339.995 757.291 341.385 752.629 342.373C746.616 343.647 739.396 347.187 732.217 350.698C717.707 357.795 711.35 367.549 708.291 372.142C706.736 374.477 704.924 380.23 702.705 389.922C700.158 401.052 700.932 409.347 700.473 417.711C699.499 435.447 700.468 447.788 700.698 449.543C700.776 451.752 701.231 454.517 702.072 457.193C702.457 458.352 702.761 459.11 703.073 460.35" stroke="#FBA817" stroke-width="4.26667" stroke-linecap="round"/>
<path d="M703.073 460.351C702.77 460.351 702.007 459.744 689.493 451.474C677.679 443.667 654.394 429.107 642.068 421.23C628.928 412.833 626.384 411.364 623.022 409.836C620.153 408.533 617.198 406.013 610.122 401.139C596.701 391.896 586.565 386.712 585.038 385.642C582.341 383.751 577.558 381.365 573.022 379.363C568.012 377.15 561.932 373.713 544.983 364.237C534.154 358.183 529.007 355.331 524.419 353.108C516.238 349.144 511.856 349.194 508.179 350.641C501.457 353.286 495.789 367.99 493.169 371.692C491.226 374.436 489.956 378.269 489.03 381.717C488.115 385.127 487.044 389.44 486.959 400.519C486.916 406.116 491.765 410.413 497.275 415.167C502.359 419.554 508.301 424.055 514.649 427.649C518.292 429.712 522.228 432.157 533.768 439.732C538.213 442.649 542.75 443.346 546.276 444.575C551.266 446.315 553.93 449.318 567.134 457.027C575.308 461.801 582.684 464.163 587.691 466.391C592.879 468.699 598.163 470.594 603.301 472.667C611.315 475.902 621.084 480.065 628.261 484.451C635.194 488.689 642.405 489.288 650.758 490.583C655.651 491.342 659.731 494.635 663.174 496.782C667.698 499.604 672.124 502.599 675.959 503.449C680.16 504.38 689.688 504.446 695.862 502.466C700.858 500.864 702.145 496.803 703.755 492.751C706.052 486.973 707.657 481.81 709.726 477.894C711.248 475.015 710.881 471.696 710.273 467.867C709.513 466.184 708.438 464.797 707.216 463.575C706.601 462.96 705.994 462.353 705.37 461.729" stroke="#F5F0EB" stroke-width="4.26667" stroke-linecap="round"/>
<path d="M830.759 367.123C829.812 367.123 828.378 367.439 826.076 368.706C822.577 370.631 820.881 373.965 820.403 377.374C819.601 383.096 820.872 387.673 822.538 389.265C831.011 397.362 851.777 389.92 855.528 389.198C857.171 388.882 859.747 388.17 862.693 385.868C867.735 381.927 865.662 372.44 863.046 364.835C858.342 359.798 854.522 357.886 846.9 356.767C843.248 356.605 837.567 356.605 831.715 356.605" stroke="#FBA817" stroke-width="4.26667" stroke-linecap="round"/>
<path d="M525.284 391.486C525.067 391.269 525.443 391.645 526.399 392.547C526.868 392.962 527.301 393.287 530.48 394.973C533.658 396.658 539.568 399.695 545.657 402.823" stroke="#F5F0EB" stroke-width="4.26667" stroke-linecap="round"/>
<path d="M526.925 389.351C526.816 389.134 529.959 391.462 536.514 396.135C539.796 398.475 543.286 400.319 544.802 401.217C546.317 402.114 545.829 401.897 541.105 398.234C536.38 394.571 527.434 387.468 522.527 383.511C516.967 379.027 515.976 377.475 515.183 375.618C513.674 372.085 514.382 370.134 514.357 369.063C514.323 367.57 511.379 368.922 509.98 369.004C508.232 369.108 506.177 369.96 504.831 370.972C503.124 372.256 501.902 373.9 500.723 375.351C498.44 378.162 500.252 383.429 500.798 385.016C501.678 387.571 502.273 389.61 503.208 391.427C503.77 392.518 504.521 393.724 506.62 396.156C509.235 399.184 513.27 401.662 516.333 403.604C518.304 404.854 519.309 405.505 521.591 406.782C523.601 407.843 527.342 409.741 529.134 410.095C530.926 410.449 530.654 409.202 530.375 407.917" stroke="#F5F0EB" stroke-width="38.4" stroke-linecap="round"/>
<path d="M514.274 367.664C513.84 366.688 513.508 365.806 513.48 365.312C513.423 364.337 518.888 368.519 522.837 370.208C524.763 371.033 527.625 371.167 529.575 372.069C530.539 372.515 533.364 374.438 537.195 377.256C538.711 378.371 539.291 378.935 542.634 381.139C545.978 383.344 552.05 387.193 557.727 390.342C563.403 393.491 568.5 395.822 574.731 398.785C580.962 401.749 588.174 405.273 593.081 407.576C597.989 409.88 600.375 410.856 601.766 411.467C603.512 412.234 606.692 413.928 611.534 416.389C614.566 417.93 615.917 419.196 616.764 420.26C617.79 421.548 619.033 424.276 621.38 427.691C622.571 429.423 624.054 430.943 625.837 432.675C629.632 436.36 632.402 438.963 633.168 440.412C633.692 441.402 633.503 442.308 633.122 443.263C632.878 443.877 632.2 444.597 631.486 445.205C630.772 445.813 629.959 446.246 627.046 446.524C624.133 446.802 619.144 446.91 611.532 445.936C603.92 444.961 593.835 442.901 587.718 441.487C581.601 440.073 579.758 439.369 578.266 438.707C575.645 437.546 572.838 435.642 568.745 433.103C566.438 431.672 563.459 430.293 561.3 429.294C555.503 426.614 552.234 426.648 549.612 426.376C545.733 425.972 543.102 425.505 541.088 424.871C538.903 424.183 537.5 423.201 535.696 421.671C534.08 420.3 532.682 419.097 531.122 417.372C529.624 415.717 527.43 415.156 525.894 414.113C525.515 413.856 525.877 414.263 527.97 415.57C530.063 416.877 533.859 419.1 538.471 421.438C543.083 423.776 548.396 426.162 552.95 428.042C557.503 429.921 561.136 431.223 563.224 432.001C566.713 433.302 568.214 434.147 570.51 435.515C573.109 437.063 575.821 439.454 578.202 441.207C579.281 442.002 581 443.433 583.222 444.946C587.994 448.194 591.164 449.922 591.928 450.468C594.01 451.673 596.195 452.877 600.569 453.51C601.674 453.594 602.487 453.594 603.325 453.594" stroke="#F5F0EB" stroke-width="38.4" stroke-linecap="round"/>
<path d="M619.297 455.136C619.418 454.895 619.539 454.653 619.964 454.468C620.389 454.282 621.115 454.161 621.791 454.583C625.104 456.648 626.738 460.253 630.704 463.858C634.563 467.367 639.427 469.167 653.09 474.18C655.782 475.168 656.427 475.171 656.436 474.81C656.47 473.464 652.193 471.158 642.532 466.719C635.961 463.701 625.733 459.74 619.834 457.44C610.553 453.822 608.063 453.916 607.025 454.095C606.506 454.185 606.351 455.122 607.194 455.617C609.673 457.072 613.297 456.603 615.555 456.421C616.497 456.345 616.966 455.877 617.457 455.146C620.237 451.007 620.03 442.96 621.612 436.888C621.892 435.81 622.105 435.234 622.469 434.862C622.834 434.489 623.439 434.369 624.234 434.609C628.276 435.828 630.528 439.727 634.492 442.299C637.762 444.42 640.776 446.816 643.301 447.685C648.5 449.473 634.09 437.184 632.133 434.136C630.897 432.211 630.418 430.219 630.535 429.725C630.987 427.819 635.883 434.588 642.702 438.794C650.465 443.582 656.914 444.749 660.2 445.841C669.144 448.814 673.031 453.414 677.013 456.104C680 458.121 682.693 460.869 685.204 462.643C687.852 464.514 688.323 468.192 688.876 471.372C689.065 472.455 688.939 474.042 688.697 475.034C688.333 476.527 684.086 477.246 680.092 477.981C678.369 478.298 676.729 478.961 675.265 479.264C674.592 479.403 674.285 480.171 674.279 480.785C674.274 481.399 674.636 482.003 675.126 482.376C677.097 483.874 679.885 483.726 683.301 484.881C689.054 486.825 691.131 486.658 692.412 486.296C693.782 485.907 693.704 479.621 693.522 472.048C693.444 468.785 691.999 467.727 690.539 466.448C686.481 462.894 676.66 459.322 671.477 456C669.064 454.452 661.273 447.373 653.832 441.894C649.167 438.458 646.186 436.817 643.804 436.139C637.722 434.408 628.108 430.952 625.173 429.424C622.311 427.934 620.891 426.671 620.156 426.789C617.223 427.257 623.072 432.756 625.578 436.608C630.275 443.831 632.228 450.819 635.536 457.134C636.967 459.866 638.833 461.485 642.004 464.646C650.816 473.433 655.452 477.605 658.078 479.931C660.211 481.82 664.718 481.527 669.921 482.682C671.209 483.11 672.54 483.594 674.616 484.146C676.693 484.698 679.475 485.302 683.441 486.292" stroke="#F5F0EB" stroke-width="38.4" stroke-linecap="round"/>
<path d="M672.786 346.886C662.972 346.886 647.73 347.638 642.598 348.781C637.542 349.907 633.481 350.682 606.114 350.688C596.517 350.69 575.515 348.596 566.387 345.193C561.439 343.349 572.836 336.079 575.407 331.702C577.695 327.805 581.386 324.862 583.956 321.913C586.699 318.766 592.763 314.99 598.006 312.884C604.635 310.222 608.175 306.999 612.067 303.394C617.676 298.2 625.627 295.224 648.192 293.881C653.957 293.538 656.622 293.309 663.604 292.556C678.57 290.944 692.502 288.561 699.809 288.088C707.726 287.039 712.861 286.851 719.558 286.566C724.939 286.469 734.343 286.469 744.033 286.469" stroke="#FF2200" stroke-width="38.4" stroke-linecap="round"/>
<path d="M546.542 349.447C548.998 349.447 558.443 351.704 565.334 354.569C570.611 356.762 576.727 358.179 581.672 359.889C586.756 361.647 591.17 366.148 603.194 373.261C617.713 381.85 622.519 382.87 628.119 386.387C633.713 389.9 639.413 391.796 647.965 397.872C653.229 401.612 656.717 403.401 660.522 405.672C665.294 408.521 666.224 413.455 669.641 416.504C672.755 419.283 676.86 420.112 679.336 423.15C680.038 424.011 680.474 425.231 680.952 424.872C682.87 423.433 682.195 405.835 682.289 382.757C682.347 368.619 685.797 359.16 688.832 353.839C692.289 347.78 695.669 342.254 698.807 337.78C702.25 332.87 705.358 329.897 710.292 326.187C716.189 321.751 723.962 321.154 729.577 319.624C738.23 317.265 749.987 315.249 757.782 314.303C764.41 313.498 769.001 313.539 773.749 313.066C780.187 312.425 785.895 314.668 793.781 317.327C803.084 320.464 805.491 322.083 805.879 322.844C807.986 326.982 790.011 312.103 779.307 302.829C774.356 298.54 769.993 296.828 765.995 295.779C761.319 294.552 755.744 292.644 751.369 291.316C750.044 290.914 748.346 290.558 739.95 290.552C731.554 290.547 716.507 290.923 707.439 291.681C695.627 292.668 690.767 296.047 686.595 298.606C683.048 300.782 676.735 304.961 665.563 312.151C651.13 321.441 640.621 330.239 634.457 333.842C629.429 336.779 626.349 338.806 624.263 338.809C623.288 338.81 622.553 338.059 621.789 338.051C621.026 338.042 620.273 338.607 619.886 339.462C618.018 343.582 624.046 348.478 632.949 357.581C640.803 365.611 652.534 368.063 656.814 367.789C660.671 367.543 661.858 360.87 663.092 356.133C667.257 340.147 670.408 320.778 673.064 317.634C674.326 316.141 678.177 315.067 688.752 313.833C708.983 311.472 723.033 312.781 725.587 312.214C734.227 310.313 744.835 309.549 754.325 309.832C758.172 310.114 760.053 310.678 764.271 311.829" stroke="#FF2200" stroke-width="38.4" stroke-linecap="round"/>
<path d="M725.079 265.574H724.448" stroke="#FF2200" stroke-width="21.3333" stroke-linecap="round"/>
<path d="M545.427 332.433C546.469 330.349 547.944 327.243 549.496 323.773C550.469 321.596 551.055 320.175 551.921 318.994C552.83 317.754 555.25 315.137 558.406 312.032C560.623 309.851 563.201 308.287 567.152 305.31C568.301 304.445 569.422 303.91 571.516 302.366C575.364 299.53 577.952 297.276 579.781 296.126C581.269 295.19 584.006 293.725 586.627 292.53C591.595 290.263 594.897 289.485 596.132 289.144C598.175 288.58 600.21 287.541 602.601 286.516C605.83 285.131 608.216 283.853 609.603 283.408C612.121 282.601 614.423 281.539 616.129 280.909C620.211 280.273 623.942 279.855 626.546 279.355C627.534 279.168 627.847 279.116 628.485 279.062" stroke="#FF2200" stroke-width="21.3333" stroke-linecap="round"/>
<path d="M631.88 274.009C632.924 273.693 635.4 273.485 643.122 272.257C650.167 271.238 663.559 269.414 674.939 268.422C686.319 267.431 695.282 267.326 704.516 267.219" stroke="#FB2100" stroke-width="21.3333" stroke-linecap="round"/>
<path d="M710.281 262.246C710.385 262.142 710.7 261.932 712.658 261.721C717.454 261.205 721.172 261.877 722.742 262.113C725.546 262.534 727.804 262.719 728.931 263.007C730.395 263.383 731.856 263.56 736.059 264.632C739.675 265.553 746.359 267.006 751.749 268.644C757.139 270.282 761.047 272.002 763.582 273.2C768.702 275.621 770.326 277.083 771.701 278.112C772.585 278.773 774.951 280.966 777.792 283.833C779.001 285.053 779.388 285.509 780.825 286.919C786.642 292.627 787.073 293.875 788.332 295.373C789.224 296.499 789.968 297.352 792.004 299.543C793.779 301.527 797.062 305.278 800.445 309.302" stroke="#FF2301" stroke-width="21.3333" stroke-linecap="round"/>
<path d="M690.464 438.128C690.661 437.931 691.058 438.223 691.703 438.968C692.027 439.342 692.446 439.615 692.698 432.28C692.95 424.945 693.049 409.971 693.248 401.124C693.497 390.003 694.046 387.085 694.44 385.106C695.849 378.029 698.518 374.362 699.814 371.614C700.67 369.798 701.503 367.49 703.539 363.81C706.893 357.749 710.752 353.656 713.292 350.917C715.035 349.038 720.675 345.416 725.377 342.655C727.801 341.231 732.622 339.72 738.535 338.428C747.179 336.538 754.039 335.338 757.072 334.69C761.485 333.748 763.395 332.848 765.734 332.003C768.374 331.753 770.559 331.159 774.479 330.708C776.118 330.657 778.482 330.657 780.918 330.657" stroke="#FF2200" stroke-width="21.3333" stroke-linecap="round"/>
<path d="M695.838 445.889C695.937 445.889 696.035 445.889 696.184 445.593C698.815 440.385 694.345 428.204 694.098 423.666C693.801 418.236 693.748 414.669 693.996 411.368C694.078 410.276 694.54 407.797 696.172 402.693C700.202 390.099 702.4 387.891 703.595 385.792C704.852 383.586 705.881 380.332 706.731 377.635C707.761 374.372 708.573 371.471 710.06 367.443C711.118 364.576 713.538 361.817 717.794 358.249C729.752 348.225 732.551 347.583 735.578 345.045C739.05 342.135 742.498 341.409 751.863 338.829C765.285 335.436 768.47 334.836 771.596 334.292C773.229 333.946 775.987 333.355 779.725 332.448" stroke="#FF2200" stroke-width="21.3333" stroke-linecap="round"/>
<path d="M776.738 336.925C777.723 336.925 785.422 336.925 796.713 336.876C804.189 336.843 809.953 337.809 813.595 340.646C816.11 342.606 819.798 346.448 822.754 349.356C825.646 352.201 828.569 355.619 830.22 356.828C831.41 357.7 831.566 347.544 831.766 336.7C831.837 332.851 831.572 332.357 831.274 331.907C829.93 329.877 827.106 326.303 823.916 321.963C820.775 317.688 817.147 311.46 814.562 308.823C812.627 306.849 809.093 305.49 805.413 303.548C800.132 300.76 797.152 298.026 794.907 296.529C791.718 294.403 788.691 290.563 786.104 288.918C781.868 286.224 779.735 285.482 776.898 285.082C773.524 284.607 772.368 278.622 771.071 276.926C770.767 276.529 770.475 276.132 770.865 276.471C774.234 279.402 776.529 280.897 780.94 282.976C792.222 288.294 793.647 291.339 795.44 293.877C796.936 295.994 798.716 299.089 800.367 301.691C801.643 303.702 803.2 305.567 805.537 307.909C807.588 309.963 809.17 312.338 811.805 316.013C814.585 319.891 819.792 329.109 822.161 333.88C823.619 336.816 824.795 340.298 825.893 342.787C826.848 344.953 827.285 347.463 828.33 349.356C828.778 350.741 829.572 353.129 830.566 355.764C830.969 356.822 831.166 357.315 831.369 358.419" stroke="#FF2200" stroke-width="21.3333" stroke-linecap="round"/>
<path d="M852.058 375.583C848.567 375.583 840.102 375.815 836.919 376.226C835.873 376.361 836.206 378.278 835.915 379.216C835.779 379.657 835.044 379.69 834.453 379.576C833.217 379.336 832.218 378.405 831.339 377.644C830.898 377.261 830.577 376.766 830.63 376.178C830.886 373.327 833.261 371.483 834.85 369.601C836.626 367.499 840.187 367.833 842.538 367.016C843.887 366.547 845.006 365.603 846.818 365.427C851.347 364.987 852.988 367.474 854.985 369.469C856.936 371.419 858.039 373.342 858.4 375.808C858.823 378.693 853.129 378.866 850.483 380.157C847.39 381.667 844.674 381.804 837.057 381.691C835.488 381.668 835.156 380.994 834.802 380.464C833.284 378.19 832.803 375.477 832.858 372.599C832.881 371.366 834.321 370.655 834.679 370.068C835.365 368.943 830.355 369.594 827.593 369.943C825.099 370.258 829.273 375.217 829.573 377.63C829.719 378.804 828.224 379.803 827.871 381.499C827.019 385.602 829.509 387.32 830.328 388.083C831.155 388.853 838.605 388.617 849.342 388.326C857.221 388.113 860.026 384.516 862.443 381.7C863.383 380.604 863.33 378.764 863.156 376.946C862.905 374.332 859.582 372.892 857.058 371.712C855.827 371.243 854.298 370.655 852.482 370.068C851.596 369.83 850.783 369.714 848.888 369.242" stroke="#F5F0EB" stroke-width="21.3333" stroke-linecap="round"/>
<path d="M501.449 995.276C501.457 995.169 501.338 994.97 501.02 994.713C500.635 994.402 500.023 994.428 499.52 994.428C499.083 994.428 498.516 994.902 497.876 995.597C497.566 995.935 497.471 996.392 497.431 996.705C497.319 997.576 497.911 998.335 498.12 999.292C498.37 1000.44 500.331 1001.66 502.302 1002.38C503.518 1002.82 504.624 1002.44 505.586 1002.36C506.708 1002.25 507.484 1001.77 508.12 1001.31C508.292 1001.18 508.394 1000.95 508.4 1000.72C508.474 998.167 504.226 995.635 503.548 995.458C502.549 995.198 501.737 996.14 501.103 996.729C500.833 996.979 501.026 997.499 501.047 997.908C501.101 998.935 502.476 999.737 503.293 1000.08C504.33 1000.38 505.244 1000.5 506.115 1000.17C506.345 1000.02 506.577 999.826 506.815 999.623" stroke="#723E26" stroke-width="4.26667" stroke-linecap="round"/>
</g>
<defs>
<clipPath id="clip0_253_11">
<rect width="1024" height="1024" fill="white"/>
</clipPath>
</defs>
</svg>
