<svg width="24" height="24" viewBox="0 0 24 24" fill="none" xmlns="http://www.w3.org/2000/svg">
<rect width="24" height="24" fill="#F8D59F"/>
<path d="M20.3149 15.4442C20.7672 14.3522 21 13.1819 21 12C21 9.61305 20.0518 7.32387 18.364 5.63604C16.6761 3.94821 14.3869 3 12 3C9.61305 3 7.32386 3.94821 5.63603 5.63604C3.94821 7.32387 3 9.61305 2.99999 12C2.99999 13.1819 3.23279 14.3522 3.68508 15.4442C4.13737 16.5361 4.80031 17.5282 5.63603 18.364C6.47176 19.1997 7.46391 19.8626 8.55584 20.3149C9.64777 20.7672 10.8181 21 12 21C13.1819 21 14.3522 20.7672 15.4441 20.3149C16.5361 19.8626 17.5282 19.1997 18.364 18.364C19.1997 17.5282 19.8626 16.5361 20.3149 15.4442Z" fill="#CA7C4C"/>
<path d="M9 7.5L12 17.25L15 7.5M21 12C21 13.1819 20.7672 14.3522 20.3149 15.4442C19.8626 16.5361 19.1997 17.5282 18.364 18.364C17.5282 19.1997 16.5361 19.8626 15.4441 20.3149C14.3522 20.7672 13.1819 21 12 21C10.8181 21 9.64777 20.7672 8.55584 20.3149C7.46391 19.8626 6.47176 19.1997 5.63603 18.364C4.80031 17.5282 4.13737 16.5361 3.68508 15.4442C3.23279 14.3522 2.99999 13.1819 2.99999 12C3 9.61305 3.94821 7.32387 5.63603 5.63604C7.32386 3.94821 9.61305 3 12 3C14.3869 3 16.6761 3.94821 18.364 5.63604C20.0518 7.32387 21 9.61305 21 12Z" stroke="#723E26" stroke-width="1.5" stroke-linecap="round" stroke-linejoin="round"/>
</svg>
