<svg width="24" height="24" viewBox="0 0 24 24" fill="none" xmlns="http://www.w3.org/2000/svg">
<g clip-path="url(#clip0_253_11)">
<rect width="24" height="24" fill="#F8D59F"/>
<path d="M34 14.4999C34.4523 13.4079 25.5 10.1818 25.5 8.99986C25.5 6.61291 26.6879 1.1877 25 -0.500123C23.3122 -2.18795 12.887 -2.00012 10.5 -2.00012C8.11308 -2.00012 -25.8122 1.81217 -27.5 3.5C-29.1879 5.18783 -2.99996 9.61322 -2.99996 12.0002C-2.99996 13.1821 -2.95227 14.4079 -2.49998 15.4999C-2.04769 16.5918 -1.3358 23.1641 -0.500071 23.9999C0.335657 24.8356 7.40811 25.0476 8.50004 25.4999C9.59197 25.9522 11.3181 25.4999 12.5 25.4999C13.6819 25.4999 17.4081 25.9522 18.5 25.4999C19.592 25.0476 23.1643 25.3356 24 24.4999C24.8357 23.6641 33.5477 15.5918 34 14.4999Z" fill="#CA7C4C"/>
<path d="M9 7.50017L12 17.2502L15 7.50017M25.5 8.99986C25.5 10.1818 34.4523 13.4079 34 14.4999C33.5477 15.5918 24.8357 23.6641 24 24.4999C23.1643 25.3356 19.592 25.0476 18.5 25.4999C17.4081 25.9522 13.6819 25.4999 12.5 25.4999C11.3181 25.4999 9.59197 25.9522 8.50004 25.4999C7.40811 25.0476 0.335657 24.8356 -0.500071 23.9999C-1.3358 23.1641 -2.04769 16.5918 -2.49998 15.4999C-2.95227 14.4079 -2.99996 13.1821 -2.99996 12.0002C-2.99996 9.61322 -29.1879 5.18783 -27.5 3.5C-25.8122 1.81217 8.11308 -2.00012 10.5 -2.00012C12.887 -2.00012 23.3122 -2.18795 25 -0.500123C26.6879 1.1877 25.5 6.61291 25.5 8.99986Z" stroke="#723E26" stroke-width="1.5" stroke-linecap="round" stroke-linejoin="round"/>
<path d="M9.07167 1.80861C9.07682 1.84736 9.09417 1.92048 9.10246 1.94091C9.10971 1.95878 9.11073 1.97608 9.1103 1.98305C9.10952 1.99571 9.09604 1.94679 9.08515 1.92802C9.07588 1.91203 9.06739 1.88861 9.05737 1.86343C9.0374 1.81326 9.05083 1.7922 9.04565 1.77266C9.04434 1.76772 9.04219 1.76356 9.05591 1.77295C9.10041 1.80338 9.14357 1.84663 9.16656 1.87568C9.17931 1.89178 9.17844 1.91436 9.17629 1.93822C9.17544 1.94767 9.16984 1.9509 9.16505 1.95267C9.16026 1.95444 9.1551 1.95444 9.15202 1.95229C9.14893 1.95015 9.14807 1.94585 9.14892 1.94106C9.14976 1.93627 9.15234 1.93111 9.155 1.9258" stroke="#CA7C4C" stroke-width="0.1" stroke-linecap="round"/>
<path d="M5.4852 4.57491C5.50661 4.63071 5.53431 4.70762 5.56256 4.79097C5.59091 4.87463 5.61954 4.96459 5.64008 5.04707C5.66088 5.13059 5.67288 5.20291 5.67188 5.25209C5.6704 5.32556 5.67546 5.39779 5.67995 5.46488C5.68452 5.53311 5.6881 5.59597 5.68524 5.65405C5.67961 5.76735 5.64944 5.85716 5.54946 5.92511C5.33209 6.07258 5.03089 6.01318 4.89062 5.79282C4.82412 5.68811 4.82358 5.58525 4.85907 5.47786C4.89566 5.36731 4.9693 5.25523 5.04949 5.13584C5.13257 5.01218 5.25385 4.85233 5.35452 4.72309C5.40396 4.65962 5.4476 4.60313 5.47988 4.56273C5.48137 4.56659 5.48363 4.57082 5.4852 4.57491Z" fill="#588088" stroke="#723E26" stroke-width="0.1"/>
<path d="M5.05066 6.64844C5.05118 6.63955 5.05172 6.62412 5.05467 6.59051C5.05968 6.53318 5.07502 6.47718 5.09108 6.4252C5.10058 6.39444 5.10917 6.35372 5.11634 6.31536C5.13771 6.20094 5.13827 6.17535 5.14147 6.15485C5.14589 6.13465 5.15118 6.115 5.15471 6.09921C5.15648 6.09205 5.15823 6.08662 5.16154 6.07356" stroke="#723E26" stroke-width="0.1" stroke-linecap="round"/>
<path d="M5.18521 6.1775C5.18471 6.17997 5.18691 6.18495 5.19359 6.19181C5.20168 6.20012 5.21599 6.20126 5.22768 6.20267C5.23786 6.2039 5.25238 6.19446 5.26923 6.1801C5.27741 6.17313 5.2809 6.16276 5.28272 6.15559C5.28777 6.13564 5.27613 6.11629 5.27398 6.09344C5.2714 6.06596 5.22919 6.03216 5.18536 6.00989C5.15831 5.99615 5.13152 6.00182 5.10889 6.00112C5.08251 6.00032 5.0631 6.00929 5.04698 6.01836C5.04264 6.0208 5.03961 6.02589 5.0388 6.03126C5.0299 6.09044 5.12159 6.16131 5.13688 6.16735C5.15939 6.17623 5.18093 6.15659 5.19735 6.14467C5.20432 6.13962 5.2013 6.12698 5.20196 6.11741C5.20362 6.09334 5.17387 6.07082 5.15583 6.06064C5.13253 6.05071 5.11163 6.04514 5.09042 6.05053C5.08465 6.05325 5.07872 6.05718 5.0726 6.06123" stroke="#723E26" stroke-width="0.1" stroke-linecap="round"/>
<path d="M10.644 2.54343C10.5845 2.53689 10.5035 2.52627 10.4165 2.51318C10.3291 2.50005 10.236 2.48427 10.1533 2.46474C10.0695 2.44495 9.99976 2.42248 9.95651 2.39905C9.89188 2.36407 9.82536 2.33547 9.76368 2.30872C9.70093 2.28151 9.64342 2.2559 9.59312 2.22674C9.49499 2.16982 9.42898 2.10184 9.4144 1.98184C9.38294 1.72106 9.57374 1.48057 9.83389 1.45686C9.95743 1.44574 10.0491 1.49239 10.1283 1.57315C10.2098 1.65633 10.2757 1.77314 10.345 1.89913C10.4169 2.02963 10.5034 2.21068 10.5721 2.35938C10.6059 2.43241 10.6361 2.49708 10.6572 2.54429C10.6531 2.54384 10.6483 2.54391 10.644 2.54343Z" fill="#588088" stroke="#723E26" stroke-width="0.1"/>
<path d="M9 1.20703C9.00766 1.21156 9.02113 1.21912 9.04965 1.23713C9.09831 1.26787 9.14106 1.30716 9.1799 1.34525C9.20288 1.3678 9.23514 1.39409 9.26595 1.41803C9.35786 1.48947 9.38035 1.50168 9.3971 1.51393C9.41303 1.52711 9.42807 1.54081 9.44049 1.55119C9.44605 1.55605 9.45007 1.56008 9.46016 1.56902" stroke="#723E26" stroke-width="0.1" stroke-linecap="round"/>
<path d="M9.35691 1.54245C9.35494 1.54087 9.34951 1.54054 9.34035 1.54334C9.32925 1.54672 9.32168 1.55892 9.31507 1.56866C9.30931 1.57714 9.31105 1.59438 9.31609 1.61593C9.31854 1.6264 9.32616 1.63426 9.3317 1.63916C9.34711 1.65279 9.36964 1.65131 9.39094 1.65987C9.41655 1.67016 9.46593 1.64814 9.50581 1.61938C9.53042 1.60164 9.53766 1.57523 9.54865 1.55543C9.56145 1.53235 9.56236 1.51099 9.5617 1.49251C9.56152 1.48753 9.55838 1.48251 9.55397 1.47933C9.50546 1.44429 9.40044 1.49332 9.38808 1.50414C9.36987 1.52008 9.37745 1.54823 9.38052 1.56828C9.38182 1.57679 9.39443 1.5799 9.40264 1.58487C9.42327 1.59737 9.45693 1.58125 9.47424 1.56988C9.49374 1.55372 9.50826 1.5377 9.5132 1.51638C9.51342 1.51 9.51265 1.50292 9.51185 1.49563" stroke="#723E26" stroke-width="0.1" stroke-linecap="round"/>
<path d="M2.98239e-05 9.99996C2.98239e-05 9.99996 0.238058 9.91263 0.50003 9.99996C0.914227 10.138 1.2834 9.87904 1.50003 9.49997C1.69379 9.1609 1.50003 8.89049 1.50003 8.49997C1.50003 8.10944 1.37654 7.87045 1.50003 7.49997C1.67467 6.97602 1.99237 6.71749 2.5 6.49993C3.03843 6.26917 4.00002 6.49997 4.00002 6.49997C4.00002 6.49997 5.1975 6.93577 6.00002 6.99997C6.38931 7.03111 6.60951 6.99996 7.00003 6.99996C7.50003 6.99996 7.62954 7.12346 8.00002 6.99997C8.52397 6.82532 8.75303 6.49395 9.00002 5.99997C9.34932 5.30138 9.00002 4.78102 9.00002 3.99997C9.00002 3.21892 9.00003 1.99996 9.00003 1.99996C9.00003 1.99996 8.82538 1.34922 9.00005 0.99992C9.12355 0.752955 9.50002 0.499969 9.50002 0.499969C9.50002 0.499969 10.0634 -7.41669e-06 10.5 -9.05216e-08C11 8.31373e-06 11.5 0.500008 11.5 0.500008" stroke="#723E26" stroke-width="0.1"/>
<path d="M3.39368 8.40636C3.33533 8.3934 3.25592 8.37401 3.17083 8.35153C3.08543 8.32896 2.99462 8.30314 2.91451 8.27472C2.83341 8.24593 2.76648 8.216 2.72604 8.188C2.66561 8.14619 2.60259 8.11052 2.54419 8.07722C2.48478 8.04334 2.4304 8.01161 2.38356 7.97715C2.29222 7.90989 2.234 7.83513 2.23257 7.71425C2.22969 7.4516 2.44554 7.2333 2.70672 7.23806C2.83074 7.24045 2.91679 7.29681 2.98672 7.38571C3.05867 7.47726 3.11144 7.60055 3.16668 7.73334C3.22389 7.8709 3.29017 8.06029 3.34231 8.21558C3.36792 8.29186 3.39092 8.35943 3.40676 8.40866C3.40273 8.40777 3.39795 8.40731 3.39368 8.40636Z" fill="#F37E6C" stroke="#723E26" stroke-width="0.1"/>
<path d="M1.90503 6.89893C1.91215 6.90427 1.92472 6.91325 1.95111 6.93426C1.99613 6.9701 2.03435 7.01381 2.06881 7.05591C2.08921 7.08082 2.11841 7.11047 2.14643 7.13763C2.23002 7.21864 2.25104 7.23323 2.26636 7.24723C2.28076 7.26206 2.29422 7.27733 2.30544 7.28899C2.31043 7.29443 2.31399 7.29888 2.32305 7.30885" stroke="#723E26" stroke-width="0.1" stroke-linecap="round"/>
<path d="M2.22329 7.27116C2.22151 7.26938 2.21614 7.26847 2.20673 7.27025C2.19533 7.2724 2.18647 7.2837 2.17884 7.29267C2.1722 7.30048 2.17205 7.31779 2.17472 7.33977C2.17601 7.35044 2.18272 7.35908 2.1877 7.36456C2.20154 7.37978 2.2241 7.38077 2.24434 7.39159C2.26867 7.40461 2.32016 7.3881 2.36293 7.36386C2.38932 7.3489 2.39939 7.32343 2.41247 7.30494C2.42772 7.2834 2.43095 7.26226 2.4323 7.24382C2.43266 7.23885 2.43008 7.23351 2.42605 7.22987C2.38164 7.18977 2.27191 7.22707 2.25844 7.23648C2.2386 7.25034 2.24308 7.27915 2.24394 7.29941C2.24431 7.30802 2.25651 7.31248 2.26413 7.31832C2.28328 7.33299 2.31849 7.32062 2.33693 7.31121C2.35808 7.29727 2.37426 7.28292 2.38149 7.26226C2.3824 7.25595 2.3824 7.24883 2.3824 7.2415" stroke="#723E26" stroke-width="0.1" stroke-linecap="round"/>
<path d="M9.48865 8.50744C9.4303 8.49447 9.35089 8.47508 9.2658 8.4526C9.1804 8.43003 9.08959 8.40422 9.00948 8.37579C8.92838 8.34701 8.86145 8.31707 8.82101 8.28907C8.76058 8.24726 8.69756 8.21159 8.63916 8.17829C8.57975 8.14441 8.52537 8.11269 8.47854 8.07822C8.38719 8.01096 8.32897 7.9362 8.32754 7.81533C8.32466 7.55267 8.54051 7.33438 8.80169 7.33913C8.92571 7.34153 9.01176 7.39788 9.08169 7.48678C9.15364 7.57834 9.20641 7.70162 9.26165 7.83442C9.31886 7.97197 9.38514 8.16136 9.43728 8.31666C9.46289 8.39293 9.48589 8.46051 9.50173 8.50973C9.4977 8.50884 9.49292 8.50839 9.48865 8.50744Z" fill="#AFC8B2" stroke="#592F1C" stroke-width="0.1"/>
<path d="M8 7C8.00712 7.00534 8.01969 7.01432 8.04608 7.03533C8.0911 7.07118 8.12932 7.11489 8.16378 7.15699C8.18418 7.1819 8.21338 7.21155 8.2414 7.2387C8.32499 7.31972 8.34601 7.33431 8.36133 7.3483C8.37573 7.36314 8.38919 7.3784 8.40041 7.39007C8.4054 7.3955 8.40896 7.39995 8.41802 7.40993" stroke="#592F1C" stroke-width="0.1" stroke-linecap="round"/>
<path d="M8.31826 7.37224C8.31648 7.37046 8.31111 7.36954 8.3017 7.37132C8.2903 7.37348 8.28144 7.38478 8.27381 7.39375C8.26717 7.40155 8.26702 7.41887 8.26969 7.44085C8.27098 7.45152 8.2777 7.46016 8.28267 7.46563C8.29651 7.48086 8.31907 7.48184 8.33931 7.49267C8.36364 7.50569 8.41513 7.48918 8.4579 7.46493C8.4843 7.44997 8.49436 7.4245 8.50744 7.40602C8.52269 7.38447 8.52592 7.36334 8.52727 7.34489C8.52763 7.33992 8.52506 7.33459 8.52102 7.33095C8.47661 7.29084 8.36688 7.32814 8.35341 7.33756C8.33357 7.35142 8.33805 7.38022 8.33892 7.40049C8.33928 7.40909 8.35148 7.41355 8.3591 7.41939C8.37825 7.43407 8.41346 7.4217 8.4319 7.41229C8.45305 7.39834 8.46923 7.384 8.47646 7.36334C8.47737 7.35703 8.47737 7.34991 8.47737 7.34257" stroke="#592F1C" stroke-width="0.1" stroke-linecap="round"/>
<path d="M7.49761 3.7441C7.55737 3.74346 7.63912 3.74428 7.72708 3.74682C7.81538 3.74938 7.90968 3.75387 7.99415 3.76334C8.07968 3.77293 8.15166 3.78686 8.19741 3.80493C8.26577 3.8319 8.33524 3.85231 8.39969 3.87146C8.46525 3.89094 8.52541 3.90947 8.57886 3.93238C8.68311 3.97711 8.7568 4.03667 8.78567 4.15405C8.84821 4.40917 8.68765 4.67083 8.43223 4.72559C8.31092 4.75146 8.21431 4.71615 8.12599 4.64548C8.03511 4.57268 7.95569 4.46462 7.8717 4.34787C7.7847 4.22693 7.6771 4.05757 7.59101 3.9182C7.54873 3.84975 7.51096 3.78917 7.48434 3.74484C7.48848 3.74479 7.49323 3.74414 7.49761 3.7441Z" fill="#FBA817" stroke="#723E26" stroke-width="0.1"/>
<path d="M9.29004 4.87354C9.28189 4.86995 9.26761 4.86407 9.23714 4.84961C9.18514 4.82494 9.13799 4.79106 9.09485 4.7579C9.06933 4.73828 9.03415 4.71605 9.00068 4.69598C8.90086 4.63609 8.87707 4.62666 8.85897 4.61652C8.84158 4.60535 8.825 4.59354 8.81142 4.58474C8.80533 4.58058 8.80085 4.57705 8.78976 4.5694" stroke="#723E26" stroke-width="0.1" stroke-linecap="round"/>
<path d="M8.89548 4.58336C8.89762 4.58469 8.90305 4.58436 8.91182 4.58049C8.92243 4.5758 8.92848 4.56278 8.93387 4.55231C8.93857 4.5432 8.93478 4.5263 8.92718 4.5055C8.92349 4.49541 8.91499 4.48852 8.9089 4.48432C8.89196 4.47264 8.86977 4.47681 8.8476 4.47087C8.82094 4.46373 8.77456 4.49151 8.73842 4.52485C8.71612 4.54542 8.7121 4.57251 8.70357 4.59349C8.69362 4.61793 8.69528 4.63925 8.69817 4.65752C8.69894 4.66244 8.70266 4.66705 8.70742 4.66968C8.75978 4.69863 8.85816 4.63736 8.86913 4.62513C8.8853 4.60712 8.87439 4.58009 8.86894 4.56055C8.86663 4.55225 8.85373 4.55068 8.84498 4.54673C8.823 4.53679 8.79153 4.55684 8.7757 4.5702C8.75829 4.58859 8.74579 4.60624 8.74345 4.628C8.74399 4.63435 8.74561 4.64129 8.74728 4.64843" stroke="#723E26" stroke-width="0.1" stroke-linecap="round"/>
<path d="M5.03776 6.65503C5.03776 6.65675 5.03776 6.65847 5.03776 6.68556C5.03776 6.71266 5.03776 6.76508 5.03516 6.8269" stroke="#723E26" stroke-width="0.1" stroke-linecap="round"/>
<path d="M9.20058 4.74226C9.19798 4.76112 9.20313 4.82544 9.21487 4.89651C9.21818 4.9166 9.21881 4.92968 9.22053 4.93968C9.22101 4.94249 9.22569 4.93851 9.22789 4.93116C9.24216 4.88344 9.22141 4.81716 9.2158 4.78748C9.211 4.76211 9.18246 4.73372 9.17196 4.72056C9.1642 4.71082 9.16845 4.75687 9.17878 4.79877C9.20799 4.91713 9.23785 4.92885 9.24911 4.93579C9.25411 4.93887 9.25865 4.93929 9.26388 4.93587C9.30366 4.90977 9.29433 4.82666 9.29433 4.80015C9.29433 4.80028 9.30121 4.8383 9.31291 4.88733C9.31774 4.90541 9.32032 4.90971 9.32558 4.92195" stroke="#CA7C4C" stroke-width="0.1" stroke-linecap="round"/>
<path d="M17.757 18.1533C17.729 18.1004 17.6923 18.0274 17.6542 17.9481C17.616 17.8684 17.5768 17.7826 17.5464 17.7031C17.5157 17.6227 17.4951 17.5524 17.4902 17.5034C17.4828 17.4303 17.4691 17.3592 17.4566 17.2932C17.4439 17.226 17.4327 17.164 17.4286 17.106C17.4206 16.9929 17.4397 16.9001 17.5308 16.8206C17.7289 16.648 18.035 16.6708 18.2008 16.8727C18.2794 16.9686 18.2923 17.0707 18.27 17.1816C18.2469 17.2957 18.1873 17.4158 18.1221 17.544C18.0545 17.6767 17.9533 17.85 17.8689 17.9904C17.8274 18.0594 17.7909 18.1207 17.7637 18.1647C17.7618 18.1611 17.759 18.1571 17.757 18.1533Z" fill="#AFC8B2" stroke="#723E26" stroke-width="0.1"/>
<path d="M17.939 16.0425C17.9395 16.0514 17.9408 16.0668 17.942 16.1005C17.9439 16.158 17.9354 16.2154 17.9257 16.269C17.92 16.3006 17.9163 16.3421 17.9138 16.381C17.9064 16.4972 17.9089 16.5227 17.9082 16.5434C17.9062 16.564 17.9033 16.5841 17.9017 16.6002C17.9008 16.6076 17.8998 16.6132 17.898 16.6265" stroke="#723E26" stroke-width="0.1" stroke-linecap="round"/>
<path d="M17.862 16.5263C17.8622 16.5237 17.8594 16.5191 17.852 16.5131C17.8429 16.5058 17.8286 16.5064 17.8168 16.5064C17.8066 16.5064 17.7933 16.5175 17.7783 16.5338C17.771 16.5417 17.7688 16.5524 17.7679 16.5597C17.7652 16.5801 17.7791 16.5979 17.784 16.6204C17.7899 16.6473 17.8358 16.6758 17.882 16.6927C17.9105 16.703 17.9364 16.6942 17.959 16.6922C17.9853 16.6898 18.0035 16.6785 18.0184 16.6676C18.0224 16.6647 18.0248 16.6592 18.025 16.6538C18.0267 16.594 17.9271 16.5347 17.9112 16.5305C17.8878 16.5244 17.8688 16.5465 17.8539 16.5603C17.8476 16.5662 17.8521 16.5783 17.8526 16.5879C17.8539 16.612 17.8861 16.6308 17.9052 16.6387C17.9296 16.6458 17.951 16.6488 17.9714 16.6409C17.9768 16.6375 17.9822 16.6329 17.9878 16.6281" stroke="#723E26" stroke-width="0.1" stroke-linecap="round"/>
<path d="M12.8801 20.7904C12.9399 20.7897 13.0216 20.7905 13.1096 20.7931C13.1979 20.7956 13.2922 20.8001 13.3766 20.8095C13.4622 20.8191 13.5342 20.833 13.5799 20.8511C13.6483 20.878 13.7178 20.8984 13.7822 20.9175C13.8478 20.937 13.9079 20.9555 13.9614 20.9784C14.0657 21.0231 14.1394 21.0827 14.1683 21.2C14.2309 21.4551 14.0704 21.7168 13.815 21.7717C13.6937 21.7976 13.597 21.7623 13.5087 21.6916C13.4178 21.6188 13.3384 21.5108 13.2543 21.3941C13.1673 21.2732 13.0597 21.1038 12.9735 20.9645C12.9312 20.896 12.8935 20.8355 12.8668 20.7911C12.871 20.7911 12.8757 20.7904 12.8801 20.7904Z" fill="#588088" stroke="#723E26" stroke-width="0.1"/>
<path d="M14.6729 21.9194C14.6647 21.9159 14.6504 21.91 14.6199 21.8955C14.5679 21.8709 14.5208 21.837 14.4776 21.8039C14.4521 21.7842 14.4169 21.762 14.3835 21.7419C14.2836 21.6821 14.2598 21.6727 14.2417 21.6625C14.2243 21.6514 14.2077 21.6396 14.1942 21.6308C14.1881 21.6266 14.1836 21.6231 14.1725 21.6154" stroke="#723E26" stroke-width="0.1" stroke-linecap="round"/>
<path d="M14.2782 21.6295C14.2803 21.6308 14.2857 21.6305 14.2945 21.6266C14.3051 21.6219 14.3112 21.6089 14.3165 21.5985C14.3212 21.5893 14.3174 21.5724 14.3098 21.5517C14.3061 21.5416 14.2976 21.5347 14.2916 21.5305C14.2746 21.5188 14.2524 21.523 14.2302 21.517C14.2036 21.5099 14.1572 21.5377 14.1211 21.571C14.0988 21.5916 14.0948 21.6187 14.0863 21.6397C14.0763 21.6641 14.078 21.6855 14.0809 21.7037C14.0816 21.7086 14.0854 21.7133 14.0901 21.7159C14.1425 21.7448 14.2408 21.6835 14.2518 21.6713C14.268 21.6533 14.2571 21.6263 14.2516 21.6067C14.2493 21.5984 14.2364 21.5969 14.2277 21.5929C14.2057 21.583 14.1742 21.603 14.1584 21.6164C14.141 21.6348 14.1285 21.6524 14.1261 21.6742C14.1267 21.6806 14.1283 21.6875 14.13 21.6946" stroke="#723E26" stroke-width="0.1" stroke-linecap="round"/>
<path d="M22.5499 12.1079C22.5499 12.1079 22.3241 12.2232 22.0536 12.1681C21.6258 12.0808 21.2904 12.3823 21.121 12.7847C20.9694 13.1446 21.1943 13.3897 21.2412 13.7774C21.2882 14.1651 21.4396 14.3875 21.3615 14.7702C21.2512 15.3113 20.9669 15.6062 20.4891 15.8832C19.9823 16.1771 18.9999 16.0636 18.9999 16.0636C18.9999 16.0636 17.7587 15.775 16.9543 15.8078C16.5641 15.8237 16.3493 15.8811 15.9616 15.9281C15.4652 15.9882 15.3218 15.8812 14.9688 16.0483C14.4697 16.2847 14.2822 16.6412 14.0964 17.1613C13.8336 17.8969 14.243 18.3714 14.3369 19.1468C14.4309 19.9222 14.5775 21.1323 14.5775 21.1323C14.5775 21.1323 14.8291 21.7573 14.6977 22.1251C14.6048 22.3851 14.2615 22.6815 14.2615 22.6815C14.2615 22.6815 13.7624 23.2456 13.3289 23.2982C12.8326 23.3583 12.276 22.9221 12.276 22.9221" stroke="#723E26" stroke-width="0.1"/>
<path d="M19.3726 14.0982C19.4321 14.104 19.5132 14.1137 19.6004 14.1258C19.6879 14.1379 19.7811 14.1526 19.8641 14.1712C19.9481 14.19 20.0181 14.2117 20.0616 14.2346C20.1267 14.2689 20.1935 14.2967 20.2555 14.3228C20.3185 14.3492 20.3763 14.3742 20.427 14.4028C20.5258 14.4586 20.5925 14.5258 20.6085 14.6456C20.6429 14.906 20.4549 15.1487 20.1951 15.1754C20.0717 15.1879 19.9795 15.1423 19.8993 15.0625C19.8169 14.9802 19.7497 14.8642 19.6789 14.739C19.6055 14.6093 19.517 14.4293 19.4465 14.2814C19.4119 14.2087 19.381 14.1444 19.3593 14.0975C19.3634 14.0979 19.3682 14.0977 19.3726 14.0982Z" fill="#FBA817" stroke="#723E26" stroke-width="0.1"/>
<path d="M21.0317 15.4155C21.024 15.4111 21.0105 15.4037 20.9817 15.386C20.9327 15.3558 20.8895 15.317 20.8503 15.2794C20.827 15.2571 20.7945 15.2312 20.7634 15.2076C20.6707 15.1372 20.648 15.1253 20.6311 15.1132C20.6151 15.1002 20.5999 15.0867 20.5873 15.0765C20.5817 15.0717 20.5776 15.0677 20.5674 15.0589" stroke="#723E26" stroke-width="0.1" stroke-linecap="round"/>
<path d="M20.671 15.0842C20.673 15.0857 20.6785 15.086 20.6876 15.0831C20.6987 15.0796 20.7061 15.0673 20.7126 15.0575C20.7182 15.0489 20.7163 15.0317 20.711 15.0102C20.7084 14.9998 20.7007 14.992 20.6951 14.9872C20.6796 14.9737 20.6571 14.9755 20.6357 14.9672C20.6099 14.9572 20.5608 14.9797 20.5213 15.009C20.4969 15.027 20.4899 15.0535 20.4792 15.0734C20.4666 15.0966 20.466 15.118 20.4668 15.1365C20.4671 15.1414 20.4703 15.1464 20.4747 15.1496C20.5236 15.184 20.6281 15.1338 20.6403 15.1228C20.6583 15.1067 20.6504 15.0786 20.6471 15.0586C20.6457 15.0501 20.6331 15.0472 20.6248 15.0423C20.6041 15.03 20.5706 15.0465 20.5534 15.0581C20.5341 15.0745 20.5198 15.0907 20.5151 15.112C20.5149 15.1184 20.5158 15.1255 20.5167 15.1328" stroke="#723E26" stroke-width="0.1" stroke-linecap="round"/>
<path d="M13.3096 14.7307C13.3691 14.7366 13.4502 14.7463 13.5374 14.7584C13.6249 14.7705 13.7182 14.7852 13.8011 14.8038C13.8851 14.8226 13.9551 14.8443 13.9986 14.8672C14.0637 14.9015 14.1305 14.9293 14.1925 14.9553C14.2555 14.9818 14.3133 15.0068 14.364 15.0353C14.4628 15.0911 14.5295 15.1583 14.5455 15.2782C14.58 15.5386 14.3919 15.7812 14.1321 15.8079C14.0087 15.8205 13.9165 15.7749 13.8363 15.695C13.7539 15.6128 13.6867 15.4968 13.6159 15.3716C13.5425 15.2419 13.454 15.0619 13.3835 14.914C13.3489 14.8413 13.318 14.777 13.2963 14.73C13.3004 14.7304 13.3052 14.7303 13.3096 14.7307Z" fill="#F37E6C" stroke="#592F1C" stroke-width="0.1"/>
<path d="M14.9688 16.0481C14.961 16.0437 14.9475 16.0362 14.9188 16.0186C14.8697 15.9884 14.8266 15.9496 14.7873 15.9119C14.764 15.8897 14.7315 15.8638 14.7004 15.8402C14.6077 15.7698 14.585 15.7578 14.5681 15.7458C14.5521 15.7328 14.5369 15.7192 14.5243 15.709C14.5187 15.7042 14.5147 15.7002 14.5045 15.6914" stroke="#592F1C" stroke-width="0.1" stroke-linecap="round"/>
<path d="M14.6081 15.7168C14.61 15.7183 14.6155 15.7186 14.6246 15.7157C14.6357 15.7122 14.6431 15.6999 14.6496 15.6901C14.6552 15.6815 14.6533 15.6643 14.648 15.6428C14.6455 15.6324 14.6377 15.6246 14.6322 15.6198C14.6166 15.6063 14.5941 15.608 14.5727 15.5997C14.547 15.5897 14.4978 15.6123 14.4583 15.6415C14.4339 15.6596 14.4269 15.686 14.4162 15.706C14.4036 15.7292 14.403 15.7506 14.4039 15.769C14.4041 15.774 14.4073 15.779 14.4117 15.7821C14.4606 15.8166 14.5651 15.7664 14.5773 15.7554C14.5954 15.7393 14.5874 15.7112 14.5842 15.6912C14.5828 15.6827 14.5701 15.6797 14.5618 15.6749C14.5411 15.6626 14.5076 15.6791 14.4904 15.6907C14.4711 15.707 14.4568 15.7232 14.4521 15.7446C14.4519 15.751 14.4528 15.7581 14.4537 15.7653" stroke="#592F1C" stroke-width="0.1" stroke-linecap="round"/>
<path d="M15.8591 19.2202C15.7998 19.228 15.7186 19.237 15.631 19.2451C15.543 19.2532 15.4488 19.26 15.3638 19.2608C15.2778 19.2616 15.2047 19.2564 15.1571 19.244C15.086 19.2254 15.0145 19.2135 14.9483 19.2023C14.8808 19.1908 14.8189 19.1796 14.7631 19.1633C14.6542 19.1315 14.5739 19.0812 14.5311 18.9681C14.4383 18.7224 14.5662 18.4433 14.8132 18.3582C14.9305 18.318 15.0307 18.3414 15.1269 18.4009C15.2258 18.4623 15.3177 18.56 15.4151 18.6658C15.516 18.7754 15.6432 18.9306 15.7454 19.0586C15.7956 19.1215 15.8404 19.177 15.8722 19.2179C15.8681 19.2184 15.8634 19.2196 15.8591 19.2202Z" fill="#F7D051" stroke="#723E26" stroke-width="0.1"/>
<path d="M13.9438 18.3145C13.9524 18.317 13.9673 18.3212 13.9992 18.3318C14.0538 18.3501 14.1047 18.378 14.1515 18.4058C14.1792 18.4222 14.2168 18.44 14.2525 18.4559C14.3588 18.5034 14.3835 18.5099 14.4027 18.5178C14.4213 18.5268 14.4392 18.5365 14.4537 18.5436C14.4603 18.547 14.4651 18.5499 14.4771 18.5562" stroke="#723E26" stroke-width="0.1" stroke-linecap="round"/>
<path d="M14.3704 18.555C14.3681 18.554 14.3628 18.555 14.3545 18.5599C14.3446 18.5658 14.3401 18.5794 14.336 18.5905C14.3325 18.6001 14.3383 18.6164 14.3483 18.6361C14.3532 18.6457 14.3624 18.6515 14.369 18.655C14.3872 18.6645 14.4087 18.6577 14.4315 18.6609C14.4588 18.6648 14.5015 18.6317 14.5334 18.5942C14.553 18.5711 14.5538 18.5438 14.5597 18.5219C14.5666 18.4964 14.5624 18.4755 14.5574 18.4577C14.556 18.4529 14.5518 18.4488 14.5467 18.4467C14.4913 18.4243 14.401 18.4969 14.3915 18.5104C14.3777 18.5302 14.3917 18.5557 14.3995 18.5745C14.4028 18.5824 14.4158 18.5825 14.4249 18.5853C14.448 18.5925 14.4768 18.5689 14.4909 18.5537C14.506 18.5333 14.5163 18.5143 14.516 18.4924C14.5147 18.4862 14.5122 18.4795 14.5097 18.4726" stroke="#723E26" stroke-width="0.1" stroke-linecap="round"/>
<path d="M17.951 16.0345C17.9508 16.0328 17.9506 16.0311 17.9474 16.0042C17.9441 15.9773 17.9378 15.9252 17.9329 15.8636" stroke="#723E26" stroke-width="0.1" stroke-linecap="round"/>
<path d="M14.0485 18.4339C14.0488 18.4149 14.0359 18.3517 14.0157 18.2825C14.01 18.263 14.0078 18.2501 14.0049 18.2404C14.0041 18.2376 13.9999 18.2421 13.9986 18.2497C13.9902 18.2988 14.0188 18.3621 14.0279 18.3909C14.0357 18.4155 14.0675 18.4402 14.0795 18.4521C14.0884 18.4608 14.0786 18.4156 14.0633 18.3752C14.0201 18.2612 13.989 18.2532 13.977 18.2477C13.9717 18.2452 13.9671 18.2453 13.9624 18.2494C13.926 18.28 13.9453 18.3614 13.9484 18.3878C13.9484 18.3876 13.937 18.3507 13.9195 18.3034C13.9125 18.2861 13.9095 18.2821 13.9028 18.2706" stroke="#CA7C4C" stroke-width="0.1" stroke-linecap="round"/>
<path d="M22.5332 12.1148C22.5486 12.1109 22.65 12.0876 22.7322 12.0446C22.8109 12.0035 22.861 11.8925 22.9258 11.7889C22.9759 11.7087 22.963 11.6034 22.9534 11.2837C22.948 11.1044 22.8929 10.9977 22.8869 10.7771C22.8832 10.6445 22.9433 10.4823 23.0448 10.1425C23.1112 9.92012 23.1698 9.70046 23.3735 9.45741C23.522 9.2803 23.8287 9.05575 24.0072 8.90122C24.2438 8.6848 24.3461 8.5359 24.4203 8.38952C24.4519 8.32826 24.4712 8.29344 24.4911 8.25757" stroke="#723E26" stroke-width="0.1" stroke-linecap="round"/>
<path d="M12.2807 22.9102C12.2627 22.9102 12.2447 22.9102 11.8149 22.9102C11.3851 22.9102 10.5441 22.9102 10.0703 22.9147C9.51545 22.9199 9.3962 22.9509 9.3057 22.9758C9.0629 23.0428 8.82922 23.0236 8.57694 23.0758C8.36439 23.1197 8.0574 23.1912 7.76239 23.3023C7.57985 23.3711 7.4881 23.4279 7.38861 23.4776C7.22729 23.5582 6.96706 23.7225 6.67205 23.87C6.40219 24.005 6.01887 24.1853 5.79351 24.3228C5.7482 24.3546 5.67555 24.4404 5.59384 24.563C5.56161 24.6135 5.54812 24.6405 5.50696 24.7228" stroke="#723E26" stroke-width="0.1" stroke-linecap="round"/>
</g>
<defs>
<clipPath id="clip0_253_11">
<rect width="24" height="24" fill="white"/>
</clipPath>
</defs>
</svg>
