<svg width="61" height="61" viewBox="0 0 61 61" fill="none" xmlns="http://www.w3.org/2000/svg">
<path d="M14.5162 58.5615H9.33437C7.27292 58.5615 5.29589 57.7426 3.83823 56.2849C2.38056 54.8273 1.56165 52.8503 1.56165 50.7888V45.607M45.6071 58.5615H50.7889C52.8504 58.5615 54.8274 57.7426 56.2851 56.2849C57.7427 54.8273 58.5616 52.8503 58.5616 50.7888V45.607M58.5616 14.5161V9.33425C58.5616 7.2728 57.7427 5.29577 56.2851 3.8381C54.8274 2.38044 52.8504 1.56152 50.7889 1.56152H45.6071M14.5162 1.56152H9.33437C7.27292 1.56152 5.29589 2.38044 3.83823 3.8381C2.38056 5.29577 1.56165 7.2728 1.56165 9.33425V14.5161M40.4253 30.0615C40.4253 27.3129 39.3334 24.6769 37.3898 22.7333C35.4463 20.7898 32.8103 19.6979 30.0616 19.6979C27.313 19.6979 24.677 20.7898 22.7334 22.7333C20.7899 24.6769 19.698 27.3129 19.698 30.0615C19.698 32.8101 20.7899 35.4462 22.7334 37.3897C24.677 39.3333 27.313 40.4252 30.0616 40.4252C32.8103 40.4252 35.4463 39.3333 37.3898 37.3897C39.3334 35.4462 40.4253 32.8101 40.4253 30.0615Z" stroke="white" stroke-width="3.12329" stroke-linecap="round" stroke-linejoin="round"/>
</svg>
