<svg width="53" height="53" viewBox="0 0 53 53" fill="none" xmlns="http://www.w3.org/2000/svg">
<path d="M15.0763 13.6369C14.6788 14.2661 14.1484 14.8007 13.5224 15.2031C12.8963 15.6056 12.1898 15.8662 11.4524 15.9667C10.6132 16.086 9.78071 16.214 8.94817 16.3532C6.62279 16.7396 4.96875 18.7867 4.96875 21.143V39.7505C4.96875 41.0682 5.49224 42.3321 6.42406 43.2639C7.35588 44.1957 8.61971 44.7192 9.9375 44.7192H43.0625C44.3803 44.7192 45.6441 44.1957 46.5759 43.2639C47.5078 42.3321 48.0312 41.0682 48.0312 39.7505V21.143C48.0312 18.7867 46.375 16.7396 44.0518 16.3532C43.2187 16.2143 42.3838 16.0855 41.5476 15.9667C40.8105 15.8659 40.1045 15.6052 39.4789 15.2027C38.8532 14.8002 38.3232 14.2658 37.9259 13.6369L36.1107 10.7307C35.703 10.0685 35.1417 9.51416 34.4744 9.11477C33.8071 8.71537 33.0533 8.48265 32.277 8.43629C28.4284 8.22957 24.5716 8.22957 20.723 8.43629C19.9467 8.48265 19.1929 8.71537 18.5256 9.11477C17.8583 9.51416 17.297 10.0685 16.8893 10.7307L15.0763 13.6369Z" stroke="#864E3F" stroke-width="2" stroke-linecap="round" stroke-linejoin="round"/>
<path d="M36.4375 28.1562C36.4375 30.7918 35.3905 33.3195 33.5269 35.1831C31.6632 37.0468 29.1356 38.0937 26.5 38.0937C23.8644 38.0937 21.3368 37.0468 19.4731 35.1831C17.6095 33.3195 16.5625 30.7918 16.5625 28.1562C16.5625 25.5207 17.6095 22.993 19.4731 21.1294C21.3368 19.2657 23.8644 18.2188 26.5 18.2188C29.1356 18.2188 31.6632 19.2657 33.5269 21.1294C35.3905 22.993 36.4375 25.5207 36.4375 28.1562ZM41.4063 23.1875H41.4239V23.2052H41.4063V23.1875Z" stroke="#864E3F" stroke-width="2" stroke-linecap="round" stroke-linejoin="round"/>
</svg>
