<svg width="110" height="100" viewBox="0 0 110 100" fill="none" xmlns="http://www.w3.org/2000/svg">
<path d="M5.81405 16.5528C13.3141 7.60558 39.5004 0 39.5004 0V81.0215L5.81405 97.2839C-2.18603 95.5679 -1.68597 25.5 5.81405 16.5528Z" fill="#F6DA5E"/>
<path d="M39.5005 0C40.3141 0 73.7677 19.1665 73.7677 19.1665C73.7677 19.1665 74.3605 98.6832 73.8141 99C73.2677 99.3168 39.5005 81.0215 39.5005 81.0215C39.5005 81.0215 38.6869 0 39.5005 0Z" fill="#FBAB1B"/>
<path d="M73.7677 19.1669C73.7677 19.1669 101.867 1.88973 104.84 3.1949C107.814 4.50008 113.367 74.4481 104.84 82.4741C96.3141 90.5 73.7677 99.0268 73.7677 99.0268V19.1669Z" fill="#F6DA5E"/>
</svg>
