<svg width="42" height="42" viewBox="0 0 42 42" fill="none" xmlns="http://www.w3.org/2000/svg">
<path d="M14.25 8.98691V27.2057M27.5 13.9557V32.1744M28.6108 39.8992L39.3764 34.5174C40.2178 34.0979 40.75 33.2366 40.75 32.2959V4.72482C40.75 2.87866 38.8067 1.67732 37.1548 2.50324L28.6108 6.77416C27.9107 7.12528 27.087 7.12528 26.3892 6.77416L15.3608 1.26216C15.0159 1.08975 14.6356 1 14.25 1C13.8644 1 13.4841 1.08975 13.1392 1.26216L2.37358 6.64386C1.53 7.06566 1 7.92691 1 8.86545V36.4365C1 38.2827 2.94333 39.484 4.59517 38.6581L13.1392 34.3872C13.8392 34.036 14.663 34.036 15.3608 34.3872L26.3892 39.9014C27.0892 40.2503 27.913 40.2503 28.6108 39.9014V39.8992Z" stroke="#864E3F" stroke-width="2" stroke-linecap="round" stroke-linejoin="round"/>
</svg>
