<svg width="20" height="20" viewBox="0 0 20 20" fill="none" xmlns="http://www.w3.org/2000/svg">
<path d="M18.0649 13.1942C18.5172 12.1022 18.75 10.9319 18.75 9.75C18.75 7.36305 17.8018 5.07387 16.114 3.38604C14.4261 1.69821 12.1369 0.75 9.75 0.75C7.36305 0.75 5.07386 1.69821 3.38603 3.38604C1.69821 5.07387 0.749995 7.36305 0.749995 9.75C0.749995 10.9319 0.982787 12.1022 1.43508 13.1942C1.88737 14.2861 2.55031 15.2782 3.38603 16.114C4.22176 16.9497 5.21391 17.6126 6.30584 18.0649C7.39777 18.5172 8.5681 18.75 9.75 18.75C10.9319 18.75 12.1022 18.5172 13.1941 18.0649C14.2861 17.6126 15.2782 16.9497 16.114 16.114C16.9497 15.2782 17.6126 14.2861 18.0649 13.1942Z" fill="#CA7C4C"/>
<path d="M6.75 5.25L9.75 15L12.75 5.25M18.75 9.75C18.75 10.9319 18.5172 12.1022 18.0649 13.1942C17.6126 14.2861 16.9497 15.2782 16.114 16.114C15.2782 16.9497 14.2861 17.6126 13.1941 18.0649C12.1022 18.5172 10.9319 18.75 9.75 18.75C8.5681 18.75 7.39777 18.5172 6.30584 18.0649C5.21391 17.6126 4.22176 16.9497 3.38603 16.114C2.55031 15.2782 1.88737 14.2861 1.43508 13.1942C0.982787 12.1022 0.749995 10.9319 0.749995 9.75C0.749995 7.36305 1.69821 5.07387 3.38603 3.38604C5.07386 1.69821 7.36305 0.75 9.75 0.75C12.1369 0.75 14.4261 1.69821 16.114 3.38604C17.8018 5.07387 18.75 7.36305 18.75 9.75Z" stroke="#723E26" stroke-width="1.5" stroke-linecap="round" stroke-linejoin="round"/>
</svg>
