<svg width="42" height="42" viewBox="0 0 42 42" fill="none" xmlns="http://www.w3.org/2000/svg">
<path d="M34.0864 35.7254C32.5433 33.6824 30.5469 32.0256 28.2546 30.8855C25.9622 29.7455 23.4363 29.1533 20.8761 29.1556C18.3159 29.1533 15.7901 29.7455 13.4977 30.8855C11.2053 32.0256 9.20891 33.6824 7.66586 35.7254M34.0864 35.7254C37.0974 33.0471 39.221 29.5168 40.1796 25.6026C41.1381 21.6884 40.8842 17.5753 39.4514 13.8087C38.0187 10.0422 35.4748 6.80015 32.1571 4.51258C28.8395 2.22501 24.9049 1 20.875 1C16.8452 1 12.9105 2.22501 9.59286 4.51258C6.27522 6.80015 3.73133 10.0422 2.29858 13.8087C0.865825 17.5753 0.611892 21.6884 1.57046 25.6026C2.52902 29.5168 4.65479 33.0471 7.66586 35.7254M34.0864 35.7254C30.4515 38.9676 25.7469 40.7563 20.8761 40.7493C16.0046 40.7568 11.3013 38.9681 7.66586 35.7254M27.5011 15.9056C27.5011 17.6627 26.8031 19.3478 25.5607 20.5902C24.3183 21.8326 22.6332 22.5306 20.8761 22.5306C19.119 22.5306 17.434 21.8326 16.1915 20.5902C14.9491 19.3478 14.2511 17.6627 14.2511 15.9056C14.2511 14.1485 14.9491 12.4634 16.1915 11.221C17.434 9.97859 19.119 9.2806 20.8761 9.2806C22.6332 9.2806 24.3183 9.97859 25.5607 11.221C26.8031 12.4634 27.5011 14.1485 27.5011 15.9056Z" stroke="#864E3F" stroke-width="2" stroke-linecap="round" stroke-linejoin="round"/>
</svg>
