<svg width="112" height="101" viewBox="0 0 112 101" fill="none" xmlns="http://www.w3.org/2000/svg">
<circle cx="51" cy="35" r="21" fill="url(#paint0_linear_232_171)"/>
<path d="M40.4062 23.3494C49.562 21.9028 57.2969 30.1362 55.2821 39.184L57.6789 28.4207C59.7443 19.1459 66.6788 11.7215 75.7914 9.02887C91.6047 4.35617 107.743 15.3088 109.24 31.7299L109.324 32.6509C110.761 48.4099 98.3536 62 82.5291 62H25.5446C13.8258 62 6.21733 49.651 11.4872 39.184L13.5978 35.5387C16.8044 30.0005 22.3378 26.204 28.659 25.2053L40.4062 23.3494Z" fill="#D3F3FF"/>
<path d="M27.423 70.7628C27.2646 70.6435 27.0395 70.6752 26.9202 70.8335C26.8009 70.9919 26.8325 71.217 26.9909 71.3363L27.2069 71.0496L27.423 70.7628ZM30.165 73.5965C30.3613 73.5689 30.4981 73.3873 30.4705 73.191L30.0208 69.9914C29.9932 69.795 29.8117 69.6583 29.6154 69.6858C29.419 69.7134 29.2822 69.895 29.3098 70.0913L29.7095 72.9354L26.8654 73.3351C26.6691 73.3627 26.5323 73.5442 26.5599 73.7406C26.5875 73.9369 26.769 74.0737 26.9654 74.0461L30.165 73.5965ZM27.2069 71.0496L26.9909 71.3363L29.8989 73.5277L30.115 73.241L30.3311 72.9542L27.423 70.7628L27.2069 71.0496Z" fill="url(#paint1_linear_232_171)"/>
<line x1="30.2836" y1="73.3782" x2="34.2579" y2="76.2204" stroke="url(#paint2_linear_232_171)" stroke-width="0.509787" stroke-linecap="round"/>
<path d="M41.789 71.2298C41.9494 71.1133 42.1739 71.1488 42.2904 71.3092C42.407 71.4697 42.3714 71.6942 42.211 71.8107L42 71.5203L41.789 71.2298ZM38.998 74.0152C38.8021 73.9841 38.6685 73.8002 38.6995 73.6044L39.205 70.4131C39.236 70.2173 39.4199 70.0837 39.6157 70.1147C39.8116 70.1457 39.9452 70.3296 39.9142 70.5255L39.4649 73.3621L42.3015 73.8114C42.4974 73.8424 42.631 74.0263 42.6 74.2222C42.569 74.418 42.3851 74.5516 42.1892 74.5206L38.998 74.0152ZM42 71.5203L42.211 71.8107L39.2651 73.951L39.0541 73.6606L38.8431 73.3701L41.789 71.2298L42 71.5203Z" fill="url(#paint3_linear_232_171)"/>
<line x1="0.254893" y1="-0.254893" x2="5.14082" y2="-0.254893" transform="matrix(-0.823429 0.567419 0.567419 0.823429 38.7023 73.4541)" stroke="url(#paint4_linear_232_171)" stroke-width="0.509787" stroke-linecap="round"/>
<path d="M34.5332 67C34.5332 66.8017 34.3724 66.641 34.1741 66.641C33.9759 66.641 33.8151 66.8017 33.8151 67H34.1741H34.5332ZM33.9203 70.8952C34.0605 71.0354 34.2878 71.0354 34.428 70.8952L36.7127 68.6105C36.8529 68.4703 36.8529 68.243 36.7127 68.1028C36.5725 67.9626 36.3452 67.9626 36.205 68.1028L34.1741 70.1336L32.1433 68.1028C32.0031 67.9626 31.7758 67.9626 31.6356 68.1028C31.4954 68.243 31.4954 68.4703 31.6356 68.6105L33.9203 70.8952ZM34.1741 67H33.8151V70.6413H34.1741H34.5332V67H34.1741Z" fill="url(#paint5_linear_232_171)"/>
<line x1="34.166" y1="70.8587" x2="34.2879" y2="75.7431" stroke="url(#paint6_linear_232_171)" stroke-width="0.509787" stroke-linecap="round"/>
<path d="M41.0897 81.3936C41.2438 81.5184 41.4698 81.4946 41.5946 81.3406C41.7194 81.1865 41.6956 80.9604 41.5415 80.8356L41.3156 81.1146L41.0897 81.3936ZM38.4483 78.466C38.2511 78.4868 38.108 78.6634 38.1287 78.8606L38.4665 82.0739C38.4872 82.2711 38.6639 82.4142 38.861 82.3935C39.0582 82.3727 39.2013 82.1961 39.1806 81.9989L38.8804 79.1426L41.7367 78.8424C41.9338 78.8217 42.0769 78.645 42.0562 78.4478C42.0354 78.2506 41.8588 78.1076 41.6616 78.1283L38.4483 78.466ZM41.3156 81.1146L41.5415 80.8356L38.7117 78.5441L38.4858 78.8231L38.2599 79.1021L41.0897 81.3936L41.3156 81.1146Z" fill="url(#paint7_linear_232_171)"/>
<line x1="38.322" y1="78.68" x2="34.4494" y2="75.7009" stroke="url(#paint8_linear_232_171)" stroke-width="0.509787" stroke-linecap="round"/>
<path d="M27.3693 81.2223C27.2089 81.3389 26.9844 81.3033 26.8679 81.1429C26.7513 80.9825 26.7869 80.758 26.9473 80.6414L27.1583 80.9319L27.3693 81.2223ZM30.1603 78.437C30.3562 78.468 30.4898 78.6519 30.4588 78.8477L29.9533 82.039C29.9223 82.2348 29.7384 82.3684 29.5426 82.3374C29.3467 82.3064 29.2131 82.1225 29.2441 81.9267L29.6934 79.09L26.8567 78.6407C26.6609 78.6097 26.5273 78.4258 26.5583 78.23C26.5893 78.0341 26.7732 77.9005 26.9691 77.9315L30.1603 78.437ZM27.1583 80.9319L26.9473 80.6414L29.8932 78.5011L30.1042 78.7916L30.3152 79.082L27.3693 81.2223L27.1583 80.9319Z" fill="url(#paint9_linear_232_171)"/>
<line x1="0.254893" y1="-0.254893" x2="5.14082" y2="-0.254893" transform="matrix(0.823429 -0.567419 -0.567419 -0.823429 29.9207 78.592)" stroke="url(#paint10_linear_232_171)" stroke-width="0.509787" stroke-linecap="round"/>
<path d="M34.0898 84.3274C34.0898 84.5257 34.2506 84.6864 34.4488 84.6864C34.6471 84.6864 34.8078 84.5257 34.8078 84.3274H34.4488H34.0898ZM34.7027 80.4322C34.5625 80.292 34.3352 80.292 34.195 80.4322L31.9103 82.7169C31.7701 82.8571 31.7701 83.0844 31.9103 83.2246C32.0505 83.3648 32.2778 83.3648 32.418 83.2246L34.4488 81.1938L36.4797 83.2246C36.6199 83.3648 36.8472 83.3648 36.9874 83.2246C37.1276 83.0844 37.1276 82.8571 36.9874 82.7169L34.7027 80.4322ZM34.4488 84.3274H34.8078V80.6861H34.4488H34.0898V84.3274H34.4488Z" fill="url(#paint11_linear_232_171)"/>
<line x1="34.457" y1="80.4687" x2="34.3351" y2="75.5843" stroke="url(#paint12_linear_232_171)" stroke-width="0.509787" stroke-linecap="round"/>
<path d="M79.4253 70.7839C79.2661 70.664 79.0398 70.6958 78.9198 70.855C78.7998 71.0142 78.8316 71.2406 78.9908 71.3606L79.2081 71.0723L79.4253 70.7839ZM82.1827 73.6334C82.3801 73.6057 82.5177 73.4231 82.49 73.2257L82.0378 70.0082C82.01 69.8107 81.8275 69.6732 81.63 69.7009C81.4326 69.7287 81.295 69.9112 81.3228 70.1087L81.7247 72.9687L78.8647 73.3706C78.6672 73.3984 78.5297 73.5809 78.5574 73.7784C78.5852 73.9758 78.7677 74.1134 78.9652 74.0856L82.1827 73.6334ZM79.2081 71.0723L78.9908 71.3606L81.9152 73.5643L82.1324 73.2759L82.3497 72.9876L79.4253 70.7839L79.2081 71.0723Z" fill="url(#paint13_linear_232_171)"/>
<line x1="82.302" y1="73.4139" x2="86.2985" y2="76.272" stroke="url(#paint14_linear_232_171)" stroke-width="0.512642" stroke-linecap="round"/>
<path d="M93.3335 70.8453C93.4948 70.7281 93.7206 70.7638 93.8378 70.9251C93.955 71.0864 93.9192 71.3122 93.7579 71.4294L93.5457 71.1373L93.3335 70.8453ZM90.5269 73.6462C90.3299 73.615 90.1956 73.4301 90.2268 73.2331L90.735 70.024C90.7662 69.8271 90.9512 69.6927 91.1481 69.7239C91.345 69.7551 91.4794 69.94 91.4482 70.137L90.9964 72.9895L93.8489 73.4413C94.0459 73.4725 94.1802 73.6574 94.149 73.8544C94.1179 74.0513 93.9329 74.1857 93.736 74.1545L90.5269 73.6462ZM93.5457 71.1373L93.7579 71.4294L90.7955 73.5817L90.5833 73.2896L90.3711 72.9976L93.3335 70.8453L93.5457 71.1373Z" fill="url(#paint15_linear_232_171)"/>
<line x1="0.256321" y1="-0.256321" x2="5.16962" y2="-0.256321" transform="matrix(-0.823429 0.567419 0.567419 0.823429 90.7679 73.4902)" stroke="url(#paint16_linear_232_171)" stroke-width="0.512642" stroke-linecap="round"/>
<path d="M86.5753 67C86.5753 66.8006 86.4137 66.639 86.2143 66.639C86.0149 66.639 85.8533 66.8006 85.8533 67H86.2143H86.5753ZM85.959 70.917C86.1 71.058 86.3286 71.058 86.4696 70.917L88.7671 68.6195C88.9081 68.4785 88.9081 68.2499 88.7671 68.1089C88.6261 67.968 88.3975 67.968 88.2565 68.1089L86.2143 70.1511L84.1721 68.1089C84.0311 67.968 83.8025 67.968 83.6616 68.1089C83.5206 68.2499 83.5206 68.4785 83.6616 68.6195L85.959 70.917ZM86.2143 67H85.8533V70.6617H86.2143H86.5753V67H86.2143Z" fill="url(#paint17_linear_232_171)"/>
<line x1="86.2062" y1="70.8802" x2="86.3288" y2="75.792" stroke="url(#paint18_linear_232_171)" stroke-width="0.512642" stroke-linecap="round"/>
<path d="M93.1686 81.4743C93.3236 81.5998 93.5509 81.5759 93.6764 81.4209C93.8019 81.266 93.778 81.0386 93.623 80.9132L93.3958 81.1937L93.1686 81.4743ZM90.5124 78.5303C90.3141 78.5511 90.1703 78.7288 90.1911 78.9271L90.5307 82.1584C90.5516 82.3567 90.7292 82.5006 90.9275 82.4797C91.1258 82.4589 91.2696 82.2812 91.2488 82.0829L90.9469 79.2106L93.8192 78.9088C94.0175 78.8879 94.1614 78.7103 94.1405 78.512C94.1197 78.3137 93.942 78.1698 93.7437 78.1907L90.5124 78.5303ZM93.3958 81.1937L93.623 80.9132L90.7773 78.6088L90.5501 78.8893L90.3229 79.1699L93.1686 81.4743L93.3958 81.1937Z" fill="url(#paint19_linear_232_171)"/>
<line x1="90.3854" y1="78.7455" x2="86.4911" y2="75.7497" stroke="url(#paint20_linear_232_171)" stroke-width="0.512642" stroke-linecap="round"/>
<path d="M79.3714 81.302C79.2101 81.4192 78.9843 81.3834 78.8671 81.2221C78.7499 81.0608 78.7857 80.835 78.947 80.7178L79.1592 81.0099L79.3714 81.302ZM82.178 78.501C82.375 78.5322 82.5093 78.7171 82.4781 78.9141L81.9699 82.1232C81.9387 82.3201 81.7537 82.4545 81.5568 82.4233C81.3599 82.3921 81.2255 82.2072 81.2567 82.0103L81.7085 79.1577L78.8559 78.7059C78.659 78.6747 78.5247 78.4898 78.5558 78.2928C78.587 78.0959 78.772 77.9616 78.9689 77.9927L82.178 78.501ZM79.1592 81.0099L78.947 80.7178L81.9094 78.5655L82.1216 78.8576L82.3338 79.1497L79.3714 81.302L79.1592 81.0099Z" fill="url(#paint21_linear_232_171)"/>
<line x1="0.256321" y1="-0.256321" x2="5.16962" y2="-0.256321" transform="matrix(0.823429 -0.567419 -0.567419 -0.823429 81.937 78.657)" stroke="url(#paint22_linear_232_171)" stroke-width="0.512642" stroke-linecap="round"/>
<path d="M86.1296 84.4244C86.1296 84.6238 86.2912 84.7855 86.4906 84.7855C86.69 84.7855 86.8516 84.6238 86.8516 84.4244H86.4906H86.1296ZM86.7458 80.5075C86.6049 80.3665 86.3763 80.3665 86.2353 80.5075L83.9378 82.8049C83.7968 82.9459 83.7968 83.1745 83.9378 83.3155C84.0788 83.4565 84.3074 83.4565 84.4484 83.3155L86.4906 81.2733L88.5328 83.3155C88.6738 83.4565 88.9024 83.4565 89.0433 83.3155C89.1843 83.1745 89.1843 82.9459 89.0433 82.8049L86.7458 80.5075ZM86.4906 84.4244H86.8516V80.7627H86.4906H86.1296V84.4244H86.4906Z" fill="url(#paint23_linear_232_171)"/>
<line x1="86.4987" y1="80.5442" x2="86.3761" y2="75.6325" stroke="url(#paint24_linear_232_171)" stroke-width="0.512642" stroke-linecap="round"/>
<path d="M56.405 87.6026C56.2534 87.4883 56.0378 87.5186 55.9236 87.6702C55.8094 87.8218 55.8397 88.0373 55.9913 88.1516L56.1981 87.8771L56.405 87.6026ZM59.0301 90.3155C59.2181 90.2891 59.3491 90.1153 59.3227 89.9273L58.8921 86.864C58.8657 86.676 58.6919 86.545 58.5039 86.5715C58.316 86.5979 58.185 86.7717 58.2114 86.9597L58.5941 89.6826L55.8712 90.0653C55.6832 90.0917 55.5522 90.2655 55.5786 90.4535C55.6051 90.6414 55.7789 90.7724 55.9668 90.746L59.0301 90.3155ZM56.1981 87.8771L55.9913 88.1516L58.7754 90.2496L58.9823 89.9751L59.1891 89.7006L56.405 87.6026L56.1981 87.8771Z" fill="url(#paint25_linear_232_171)"/>
<line x1="59.1438" y1="90.1064" x2="62.9487" y2="92.8275" stroke="url(#paint26_linear_232_171)" stroke-width="0.488068" stroke-linecap="round"/>
<path d="M69.6464 87.661C69.8 87.5494 70.0149 87.5835 70.1265 87.7371C70.2381 87.8906 70.204 88.1056 70.0505 88.2172L69.8484 87.9391L69.6464 87.661ZM66.9743 90.3277C66.7868 90.298 66.6589 90.1219 66.6886 89.9344L67.1725 86.8791C67.2022 86.6916 67.3783 86.5637 67.5658 86.5934C67.7532 86.6231 67.8812 86.7992 67.8515 86.9867L67.4213 89.7025L70.1371 90.1326C70.3246 90.1623 70.4526 90.3384 70.4229 90.5259C70.3932 90.7134 70.2171 90.8413 70.0296 90.8116L66.9743 90.3277ZM69.8484 87.9391L70.0505 88.2172L67.2301 90.2663L67.0281 89.9882L66.826 89.7101L69.6464 87.661L69.8484 87.9391Z" fill="url(#paint27_linear_232_171)"/>
<line x1="0.244034" y1="-0.244034" x2="4.92181" y2="-0.244034" transform="matrix(-0.823429 0.567419 0.567419 0.823429 67.2037 90.1792)" stroke="url(#paint28_linear_232_171)" stroke-width="0.488068" stroke-linecap="round"/>
<path d="M63.2122 84C63.2122 83.8102 63.0583 83.6563 62.8685 83.6563C62.6787 83.6563 62.5248 83.8102 62.5248 84H62.8685H63.2122ZM62.6255 87.7292C62.7597 87.8634 62.9773 87.8634 63.1115 87.7292L65.2989 85.5419C65.4331 85.4076 65.4331 85.19 65.2989 85.0558C65.1647 84.9216 64.947 84.9216 64.8128 85.0558L62.8685 87.0001L60.9242 85.0558C60.79 84.9216 60.5723 84.9216 60.4381 85.0558C60.3039 85.19 60.3039 85.4076 60.4381 85.5419L62.6255 87.7292ZM62.8685 84H62.5248V87.4862H62.8685H63.2122V84H62.8685Z" fill="url(#paint29_linear_232_171)"/>
<line x1="62.8607" y1="87.6943" x2="62.9775" y2="92.3706" stroke="url(#paint30_linear_232_171)" stroke-width="0.488068" stroke-linecap="round"/>
<path d="M69.4894 97.7805C69.6369 97.9 69.8534 97.8773 69.9728 97.7297C70.0923 97.5822 70.0695 97.3658 69.922 97.2463L69.7057 97.5134L69.4894 97.7805ZM66.9605 94.9777C66.7717 94.9975 66.6348 95.1666 66.6546 95.3554L66.978 98.4319C66.9978 98.6207 67.1669 98.7576 67.3557 98.7378C67.5445 98.7179 67.6815 98.5488 67.6616 98.36L67.3742 95.6254L70.1088 95.338C70.2976 95.3181 70.4346 95.149 70.4147 94.9602C70.3949 94.7714 70.2258 94.6345 70.037 94.6543L66.9605 94.9777ZM69.7057 97.5134L69.922 97.2463L67.2128 95.0524L66.9965 95.3195L66.7801 95.5866L69.4894 97.7805L69.7057 97.5134Z" fill="url(#paint31_linear_232_171)"/>
<line x1="66.8397" y1="95.1824" x2="63.132" y2="92.3302" stroke="url(#paint32_linear_232_171)" stroke-width="0.488068" stroke-linecap="round"/>
<path d="M56.3536 97.6164C56.2 97.728 55.9851 97.694 55.8735 97.5404C55.7619 97.3868 55.796 97.1719 55.9495 97.0603L56.1516 97.3384L56.3536 97.6164ZM59.0257 94.9498C59.2132 94.9795 59.3411 95.1555 59.3114 95.343L58.8275 98.3983C58.7978 98.5858 58.6217 98.7137 58.4342 98.684C58.2468 98.6543 58.1188 98.4783 58.1485 98.2908L58.5787 95.575L55.8629 95.1448C55.6754 95.1151 55.5474 94.9391 55.5771 94.7516C55.6068 94.5641 55.7829 94.4362 55.9704 94.4659L59.0257 94.9498ZM56.1516 97.3384L55.9495 97.0603L58.7699 95.0112L58.9719 95.2893L59.174 95.5673L56.3536 97.6164L56.1516 97.3384Z" fill="url(#paint33_linear_232_171)"/>
<line x1="0.244034" y1="-0.244034" x2="4.92181" y2="-0.244034" transform="matrix(0.823429 -0.567419 -0.567419 -0.823429 58.7963 95.0983)" stroke="url(#paint34_linear_232_171)" stroke-width="0.488068" stroke-linecap="round"/>
<path d="M62.7878 100.589C62.7878 100.779 62.9417 100.933 63.1315 100.933C63.3213 100.933 63.4752 100.779 63.4752 100.589H63.1315H62.7878ZM63.3745 96.86C63.2403 96.7258 63.0227 96.7258 62.8885 96.86L60.7011 99.0474C60.5669 99.1816 60.5669 99.3992 60.7011 99.5335C60.8353 99.6677 61.053 99.6677 61.1872 99.5335L63.1315 97.5891L65.0758 99.5335C65.21 99.6677 65.4277 99.6677 65.5619 99.5335C65.6961 99.3992 65.6961 99.1816 65.5619 99.0474L63.3745 96.86ZM63.1315 100.589H63.4752V97.1031H63.1315H62.7878V100.589H63.1315Z" fill="url(#paint35_linear_232_171)"/>
<line x1="63.1393" y1="96.8949" x2="63.0225" y2="92.2186" stroke="url(#paint36_linear_232_171)" stroke-width="0.488068" stroke-linecap="round"/>
<defs>
<linearGradient id="paint0_linear_232_171" x1="62" y1="48" x2="41" y2="19.5" gradientUnits="userSpaceOnUse">
<stop stop-color="#FC9C06"/>
<stop offset="1" stop-color="#F5E670"/>
</linearGradient>
<linearGradient id="paint1_linear_232_171" x1="28.661" y1="72.1453" x2="28.0591" y2="72.9439" gradientUnits="userSpaceOnUse">
<stop stop-color="#5190A9"/>
<stop offset="1" stop-color="#90CBE2"/>
</linearGradient>
<linearGradient id="paint2_linear_232_171" x1="32.1225" y1="75.0066" x2="31.5408" y2="75.82" gradientUnits="userSpaceOnUse">
<stop stop-color="#5190A9"/>
<stop offset="1" stop-color="#90CBE2"/>
</linearGradient>
<linearGradient id="paint3_linear_232_171" x1="40.5271" y1="72.5904" x2="41.1148" y2="73.3994" gradientUnits="userSpaceOnUse">
<stop stop-color="#5190A9"/>
<stop offset="1" stop-color="#90CBE2"/>
</linearGradient>
<linearGradient id="paint4_linear_232_171" x1="2.69786" y1="0" x2="2.69786" y2="1" gradientUnits="userSpaceOnUse">
<stop stop-color="#5190A9"/>
<stop offset="1" stop-color="#90CBE2"/>
</linearGradient>
<linearGradient id="paint5_linear_232_171" x1="34.1741" y1="68.8207" x2="33.1741" y2="68.8207" gradientUnits="userSpaceOnUse">
<stop stop-color="#5190A9"/>
<stop offset="1" stop-color="#90CBE2"/>
</linearGradient>
<linearGradient id="paint6_linear_232_171" x1="33.9722" y1="73.3072" x2="32.9725" y2="73.3322" gradientUnits="userSpaceOnUse">
<stop stop-color="#5190A9"/>
<stop offset="1" stop-color="#90CBE2"/>
</linearGradient>
<linearGradient id="paint7_linear_232_171" x1="39.9007" y1="79.9689" x2="40.53" y2="79.1917" gradientUnits="userSpaceOnUse">
<stop stop-color="#5190A9"/>
<stop offset="1" stop-color="#90CBE2"/>
</linearGradient>
<linearGradient id="paint8_linear_232_171" x1="36.5411" y1="76.9884" x2="37.1509" y2="76.1958" gradientUnits="userSpaceOnUse">
<stop stop-color="#5190A9"/>
<stop offset="1" stop-color="#90CBE2"/>
</linearGradient>
<linearGradient id="paint9_linear_232_171" x1="28.6312" y1="79.8617" x2="28.0434" y2="79.0527" gradientUnits="userSpaceOnUse">
<stop stop-color="#5190A9"/>
<stop offset="1" stop-color="#90CBE2"/>
</linearGradient>
<linearGradient id="paint10_linear_232_171" x1="2.69786" y1="0" x2="2.69786" y2="1" gradientUnits="userSpaceOnUse">
<stop stop-color="#5190A9"/>
<stop offset="1" stop-color="#90CBE2"/>
</linearGradient>
<linearGradient id="paint11_linear_232_171" x1="34.4488" y1="82.5067" x2="35.4488" y2="82.5067" gradientUnits="userSpaceOnUse">
<stop stop-color="#5190A9"/>
<stop offset="1" stop-color="#90CBE2"/>
</linearGradient>
<linearGradient id="paint12_linear_232_171" x1="34.6508" y1="78.0201" x2="35.6505" y2="77.9952" gradientUnits="userSpaceOnUse">
<stop stop-color="#5190A9"/>
<stop offset="1" stop-color="#90CBE2"/>
</linearGradient>
<linearGradient id="paint13_linear_232_171" x1="80.6703" y1="72.1741" x2="80.0685" y2="72.9727" gradientUnits="userSpaceOnUse">
<stop stop-color="#5190A9"/>
<stop offset="1" stop-color="#90CBE2"/>
</linearGradient>
<linearGradient id="paint14_linear_232_171" x1="84.1512" y1="75.0514" x2="83.5695" y2="75.8648" gradientUnits="userSpaceOnUse">
<stop stop-color="#5190A9"/>
<stop offset="1" stop-color="#90CBE2"/>
</linearGradient>
<linearGradient id="paint15_linear_232_171" x1="92.0645" y1="72.2135" x2="92.6523" y2="73.0225" gradientUnits="userSpaceOnUse">
<stop stop-color="#5190A9"/>
<stop offset="1" stop-color="#90CBE2"/>
</linearGradient>
<linearGradient id="paint16_linear_232_171" x1="2.71297" y1="0" x2="2.71297" y2="1" gradientUnits="userSpaceOnUse">
<stop stop-color="#5190A9"/>
<stop offset="1" stop-color="#90CBE2"/>
</linearGradient>
<linearGradient id="paint17_linear_232_171" x1="86.2143" y1="68.8309" x2="85.2143" y2="68.8309" gradientUnits="userSpaceOnUse">
<stop stop-color="#5190A9"/>
<stop offset="1" stop-color="#90CBE2"/>
</linearGradient>
<linearGradient id="paint18_linear_232_171" x1="86.0112" y1="73.3425" x2="85.0115" y2="73.3674" gradientUnits="userSpaceOnUse">
<stop stop-color="#5190A9"/>
<stop offset="1" stop-color="#90CBE2"/>
</linearGradient>
<linearGradient id="paint19_linear_232_171" x1="91.973" y1="80.0415" x2="92.6023" y2="79.2644" gradientUnits="userSpaceOnUse">
<stop stop-color="#5190A9"/>
<stop offset="1" stop-color="#90CBE2"/>
</linearGradient>
<linearGradient id="paint20_linear_232_171" x1="88.5946" y1="77.0444" x2="89.2043" y2="76.2518" gradientUnits="userSpaceOnUse">
<stop stop-color="#5190A9"/>
<stop offset="1" stop-color="#90CBE2"/>
</linearGradient>
<linearGradient id="paint21_linear_232_171" x1="80.6404" y1="79.9337" x2="80.0526" y2="79.1247" gradientUnits="userSpaceOnUse">
<stop stop-color="#5190A9"/>
<stop offset="1" stop-color="#90CBE2"/>
</linearGradient>
<linearGradient id="paint22_linear_232_171" x1="2.71297" y1="0" x2="2.71297" y2="1" gradientUnits="userSpaceOnUse">
<stop stop-color="#5190A9"/>
<stop offset="1" stop-color="#90CBE2"/>
</linearGradient>
<linearGradient id="paint23_linear_232_171" x1="86.4906" y1="82.5936" x2="87.4906" y2="82.5936" gradientUnits="userSpaceOnUse">
<stop stop-color="#5190A9"/>
<stop offset="1" stop-color="#90CBE2"/>
</linearGradient>
<linearGradient id="paint24_linear_232_171" x1="86.6937" y1="78.0819" x2="87.6934" y2="78.057" gradientUnits="userSpaceOnUse">
<stop stop-color="#5190A9"/>
<stop offset="1" stop-color="#90CBE2"/>
</linearGradient>
<linearGradient id="paint25_linear_232_171" x1="57.5902" y1="88.9261" x2="56.9884" y2="89.7247" gradientUnits="userSpaceOnUse">
<stop stop-color="#5190A9"/>
<stop offset="1" stop-color="#90CBE2"/>
</linearGradient>
<linearGradient id="paint26_linear_232_171" x1="60.9042" y1="91.6655" x2="60.3225" y2="92.4789" gradientUnits="userSpaceOnUse">
<stop stop-color="#5190A9"/>
<stop offset="1" stop-color="#90CBE2"/>
</linearGradient>
<linearGradient id="paint27_linear_232_171" x1="68.4383" y1="88.9636" x2="69.026" y2="89.7727" gradientUnits="userSpaceOnUse">
<stop stop-color="#5190A9"/>
<stop offset="1" stop-color="#90CBE2"/>
</linearGradient>
<linearGradient id="paint28_linear_232_171" x1="2.58292" y1="0" x2="2.58292" y2="1" gradientUnits="userSpaceOnUse">
<stop stop-color="#5190A9"/>
<stop offset="1" stop-color="#90CBE2"/>
</linearGradient>
<linearGradient id="paint29_linear_232_171" x1="62.8685" y1="85.7431" x2="61.8685" y2="85.7431" gradientUnits="userSpaceOnUse">
<stop stop-color="#5190A9"/>
<stop offset="1" stop-color="#90CBE2"/>
</linearGradient>
<linearGradient id="paint30_linear_232_171" x1="62.6751" y1="90.0385" x2="61.6755" y2="90.0635" gradientUnits="userSpaceOnUse">
<stop stop-color="#5190A9"/>
<stop offset="1" stop-color="#90CBE2"/>
</linearGradient>
<linearGradient id="paint31_linear_232_171" x1="68.3511" y1="96.4165" x2="68.9804" y2="95.6393" gradientUnits="userSpaceOnUse">
<stop stop-color="#5190A9"/>
<stop offset="1" stop-color="#90CBE2"/>
</linearGradient>
<linearGradient id="paint32_linear_232_171" x1="65.1346" y1="93.5629" x2="65.7444" y2="92.7703" gradientUnits="userSpaceOnUse">
<stop stop-color="#5190A9"/>
<stop offset="1" stop-color="#90CBE2"/>
</linearGradient>
<linearGradient id="paint33_linear_232_171" x1="57.5617" y1="96.3138" x2="56.974" y2="95.5048" gradientUnits="userSpaceOnUse">
<stop stop-color="#5190A9"/>
<stop offset="1" stop-color="#90CBE2"/>
</linearGradient>
<linearGradient id="paint34_linear_232_171" x1="2.58292" y1="0" x2="2.58292" y2="1" gradientUnits="userSpaceOnUse">
<stop stop-color="#5190A9"/>
<stop offset="1" stop-color="#90CBE2"/>
</linearGradient>
<linearGradient id="paint35_linear_232_171" x1="63.1315" y1="98.8461" x2="64.1315" y2="98.8461" gradientUnits="userSpaceOnUse">
<stop stop-color="#5190A9"/>
<stop offset="1" stop-color="#90CBE2"/>
</linearGradient>
<linearGradient id="paint36_linear_232_171" x1="63.3249" y1="94.5507" x2="64.3245" y2="94.5257" gradientUnits="userSpaceOnUse">
<stop stop-color="#5190A9"/>
<stop offset="1" stop-color="#90CBE2"/>
</linearGradient>
</defs>
</svg>
