<svg width="112" height="93" viewBox="0 0 112 93" fill="none" xmlns="http://www.w3.org/2000/svg">
<path d="M40.4062 23.3494C49.562 21.9028 57.2969 30.1362 55.2821 39.184L57.6789 28.4207C59.7443 19.1459 66.6788 11.7215 75.7914 9.02887C91.6047 4.35617 107.743 15.3088 109.24 31.7299L109.324 32.6509C110.761 48.4099 98.3536 62 82.5291 62H25.5446C13.8258 62 6.21733 49.651 11.4872 39.184L13.5978 35.5387C16.8044 30.0005 22.3378 26.204 28.659 25.2053L40.4062 23.3494Z" fill="url(#paint0_linear_232_190)"/>
<line x1="30" y1="65" x2="30" y2="87" stroke="#386374" stroke-width="2" stroke-linecap="round"/>
<line x1="61" y1="65" x2="61" y2="87" stroke="#386374" stroke-width="2" stroke-linecap="round"/>
<line x1="91" y1="65" x2="91" y2="87" stroke="#386374" stroke-width="2" stroke-linecap="round"/>
<line x1="50" y1="67" x2="50" y2="79" stroke="#386374" stroke-width="2" stroke-linecap="round"/>
<line x1="72" y1="67" x2="72" y2="79" stroke="#386374" stroke-width="2" stroke-linecap="round"/>
<path d="M84.1458 65.467L78.3276 76.3825L86.2813 76.156L80.0139 88.6872" stroke="#F6DC61" stroke-width="2"/>
<path d="M41.1458 64.467L35.3276 75.3825L43.2813 75.156L37.0139 87.6872" stroke="#F6DC61" stroke-width="2"/>
<defs>
<linearGradient id="paint0_linear_232_190" x1="56" y1="6.46037e-07" x2="68" y2="62" gradientUnits="userSpaceOnUse">
<stop stop-color="#FFF0D0"/>
<stop offset="0.533654" stop-color="#ACA28D"/>
<stop offset="0.634615" stop-color="#928A78"/>
<stop offset="1" stop-color="#45423A"/>
</linearGradient>
</defs>
</svg>
