<svg width="118" height="101" viewBox="0 0 118 101" fill="none" xmlns="http://www.w3.org/2000/svg">
<path d="M80.3402 9.98816C71.3007 3.23908 60.2537 -0.273115 48.9763 0.0165766C37.6989 0.306268 26.8468 4.38101 18.1657 11.5853C9.48465 18.7896 3.47927 28.7046 1.11569 39.7353C-1.2479 50.766 0.16771 62.2711 5.1348 72.3999C10.1019 82.5286 18.3317 90.6921 28.5002 95.5771C38.6688 100.462 50.185 101.785 61.1963 99.3318C72.2075 96.8791 82.0736 90.7937 89.2074 82.0546C96.3412 73.3155 100.328 62.4308 100.527 51.1514L87.7526 50.9267C87.6046 59.3393 84.631 67.4575 79.3103 73.9755C73.9896 80.4934 66.6311 85.0322 58.4185 86.8615C50.2059 88.6909 41.6167 87.7045 34.0325 84.0611C26.4484 80.4177 20.3103 74.329 16.6057 66.7746C12.901 59.2202 11.8452 50.6392 13.608 42.4121C15.3709 34.1849 19.8499 26.7899 26.3246 21.4167C32.7993 16.0434 40.8933 13.0043 49.3044 12.7883C57.7155 12.5722 65.9548 15.1918 72.6968 20.2255L80.3402 9.98816Z" fill="#FBAB1B"/>
<path d="M55.5095 20.17L75.8963 39.1911L103.564 6.14195L118 18.9217L98.8303 35.9614L75.8963 58.9651L59.213 43.6293L43.0253 28.2936L55.5095 20.17Z" fill="#F6DA5E"/>
</svg>
